<svg width="184" height="34" viewBox="0 0 184 34" fill="none" xmlns="http://www.w3.org/2000/svg">
<path d="M50.9998 25L33.4418 32.476C31.9858 33.0927 30.7631 33.401 29.7738 33.401C28.6538 33.401 27.8414 33.0087 27.3368 32.224C27.0201 31.72 26.9268 31.0807 27.0568 30.306C27.1874 29.5313 27.5328 28.7053 28.0928 27.828C28.5594 27.118 29.3251 26.1847 30.3898 25.028C30.0282 25.5965 29.7632 26.2209 29.6058 26.876C29.3258 28.0707 29.5778 28.948 30.3618 29.508C30.7351 29.7693 31.2484 29.9 31.9018 29.9C32.4238 29.9 33.0118 29.816 33.6658 29.648L50.9998 25Z" fill="#0052FF"/>
<path d="M1.76 13.5H10.56L12.848 15.92V20.98L10.56 23.4H5.324V28.24H7.084V30H1.76V28.24H3.3V15.26H1.76V13.5ZM9.68 21.508L10.956 20.21V16.69L9.702 15.392H5.324V21.508H9.68ZM14.9885 15.7H23.7885L26.0765 18.12V22.52L23.8545 24.852L25.9005 28.24H27.0665V30H23.1505V28.24H23.7665L21.7865 24.94H18.5525V28.24H19.8725V30H14.9885V28.24H16.5285V17.46H14.9885V15.7ZM22.9085 23.048L24.1845 21.75V18.89L22.9305 17.592H18.5525V23.048H22.9085ZM29.6513 28.24H31.4113V17.46H29.6513V15.7H35.1953V17.46H33.4353V28.24H35.1953V30H29.6513V28.24ZM45.6646 28.24L41.5506 18.186V28.24H43.0906V30H37.9866V28.24H39.5266V17.46H37.9866V15.7H42.4746L46.6326 26.106L50.7906 15.7H55.2786V17.46H53.7386V28.24H55.2786V30H50.1746V28.24H51.7146V18.186L47.6006 28.24H45.6646ZM58.3049 15.7H68.7769V20.012H67.0169V17.46H61.8689V21.97H67.0169V23.73H61.8689V28.24H67.0169V25.688H68.7769V30H58.3049V28.24H59.8449V17.46H58.3049V15.7ZM78.9827 13.5H84.0867V15.26H82.5467V20.87H89.3227V15.26H87.7827V13.5H92.8867V15.26H91.3467V28.24H92.8867V30H87.7827V28.24H89.3227V22.63H82.5467V28.24H84.0867V30H78.9827V28.24H80.5227V15.26H78.9827V13.5ZM95.9065 15.7H106.378V20.012H104.618V17.46H99.4705V21.97H104.618V23.73H99.4705V28.24H104.618V25.688H106.378V30H95.9065V28.24H97.4465V17.46H95.9065V15.7ZM109.393 15.7H118.193L120.481 18.12V22.52L118.259 24.852L120.305 28.24H121.471V30H117.555V28.24H118.171L116.191 24.94H112.957V28.24H114.277V30H109.393V28.24H110.933V17.46H109.393V15.7ZM117.313 23.048L118.589 21.75V18.89L117.335 17.592H112.957V23.048H117.313ZM124.056 28.24H125.816V17.46H124.056V15.7H129.6V17.46H127.84V28.24H129.6V30H124.056V28.24ZM140.223 30H133.799V28.24H135.999V17.46H132.963V20.012H131.291V15.7H142.731V20.012H141.059V17.46H138.023V28.24H140.223V30ZM151.472 30V28.24H152.924L151.978 25.512H146.478L145.532 28.24H147.006V30H142.342V28.24H143.508L147.226 17.46H146.302V15.7H152.176V17.46H151.23L154.948 28.24H156.136V30H151.472ZM149.228 17.526L147.072 23.752H151.384L149.228 17.526ZM160.877 28.108H164.903L166.311 26.678V24.39H163.275V22.63H168.071V27.58L165.783 30H160.019L157.731 27.58V18.12L160.019 15.7H165.783L168.071 18.12V20.892H166.311V19.022L164.925 17.592H160.899L159.755 18.758V26.942L160.877 28.108ZM170.873 15.7H181.345V20.012H179.585V17.46H174.437V21.97H179.585V23.73H174.437V28.24H179.585V25.688H181.345V30H170.873V28.24H172.413V17.46H170.873V15.7Z" fill="#333333"/>
<path d="M134.122 10.796H136.684L137.58 9.886V7.73H135.648V6.61H138.7V10.46L137.244 12H133.576L132.12 10.46V3.04L133.576 1.5H137.244L138.7 3.04V4.804H137.58V3.614L136.698 2.704H134.136L133.408 3.446V10.054L134.122 10.796ZM140.302 2.9H143.69V4.02H142.57V10.88H145.622V9.256H146.686V12H140.302V10.88H141.282V4.02H140.302V2.9ZM149.037 12L147.581 10.46V4.44L149.037 2.9H152.985L154.441 4.44V10.46L152.985 12H149.037ZM149.583 10.796H152.425L153.153 10.054V4.846L152.439 4.104H149.597L148.869 4.846V10.054L149.583 10.796ZM156.186 2.9H161.786L163.242 4.44V6.4L162.486 7.198L163.522 8.276V10.46L162.066 12H156.186V10.88H157.166V4.02H156.186V2.9ZM161.226 6.736L162.038 5.91V4.93L161.24 4.104H158.454V6.736H161.226ZM161.506 10.796L162.318 9.97V8.766L161.436 7.856H158.454V10.796H161.506ZM170.157 12V10.88H171.081L170.479 9.144H166.979L166.377 10.88H167.315V12H164.347V10.88H165.089L167.455 4.02H166.867V2.9H170.605V4.02H170.003L172.369 10.88H173.125V12H170.157ZM168.729 4.062L167.357 8.024H170.101L168.729 4.062ZM173.958 2.9H177.346V4.02H176.226V10.88H179.278V9.256H180.342V12H173.958V10.88H174.938V4.02H173.958V2.9Z" fill="#0052FF"/>
</svg>