   <svg
          width="199"
          height="41"
          viewBox="0 0 199 41"
          fill="none"
          xmlns="http://www.w3.org/2000/svg"
        >
          <g clipPath="url(#clip0_812_2567)">
            <path
              d="M9.60781 30.9199C7.65581 30.9199 5.95981 30.4879 4.51981 29.6239C3.07981 28.7759 1.96781 27.5759 1.18381 26.0239C0.399812 24.4719 0.0078125 22.6399 0.0078125 20.5279C0.0078125 19.7279 0.103812 18.8399 0.295812 17.8639C0.503812 16.8719 0.831812 15.8879 1.27981 14.9119C1.72781 13.9199 2.32781 13.0159 3.07981 12.1999C3.83181 11.3839 4.75181 10.7279 5.83981 10.2319C6.92781 9.71994 8.20781 9.46394 9.67981 9.46394C10.9438 9.46394 12.0478 9.62394 12.9918 9.94394C13.9358 10.2479 14.7518 10.6399 15.4398 11.1199C16.1278 11.5839 16.6958 12.0719 17.1438 12.5839C17.6078 13.0959 17.9758 13.5679 18.2478 13.9999C18.5198 14.4159 18.7198 14.7199 18.8478 14.9119L15.3678 17.5759C15.0158 16.9199 14.5998 16.2799 14.1198 15.6559C13.6398 15.0159 13.0478 14.4879 12.3438 14.0719C11.6398 13.6559 10.7678 13.4479 9.72781 13.4479C8.65581 13.4479 7.76781 13.6879 7.06381 14.1679C6.35981 14.6479 5.79981 15.2559 5.38381 15.9919C4.98381 16.7279 4.70381 17.5119 4.54381 18.3439C4.38381 19.1599 4.30381 19.9199 4.30381 20.6239C4.30381 21.3759 4.38381 22.1199 4.54381 22.8559C4.70381 23.5919 4.97581 24.2639 5.35981 24.8719C5.75981 25.4799 6.28781 25.9679 6.94381 26.3359C7.61581 26.6879 8.45581 26.8639 9.46381 26.8639C10.5838 26.8639 11.4958 26.6639 12.1998 26.2639C12.9198 25.8639 13.5198 25.3039 13.9998 24.5839C14.4798 23.8479 14.9278 22.9919 15.3438 22.0159L19.2798 23.7919C18.5758 25.2479 17.7838 26.5119 16.9038 27.5839C16.0238 28.6559 14.9918 29.4799 13.8078 30.0559C12.6238 30.6319 11.2238 30.9199 9.60781 30.9199ZM27.5742 30.8959C26.3742 30.8959 25.2862 30.5839 24.3102 29.9599C23.3342 29.3519 22.5582 28.5279 21.9822 27.4879C21.4222 26.4319 21.1422 25.2559 21.1422 23.9599C21.1422 22.7439 21.3662 21.6479 21.8142 20.6719C22.2622 19.6799 22.8702 18.8319 23.6382 18.1279C24.4222 17.4239 25.3102 16.8879 26.3022 16.5199C27.2942 16.1359 28.3342 15.9439 29.4222 15.9439C30.3342 15.9439 31.2302 16.0719 32.1102 16.3279C32.1742 15.9919 32.2302 15.6559 32.2782 15.3199L36.3822 16.0159C36.2702 16.3199 36.1582 16.7759 36.0462 17.3839C35.9342 17.9919 35.8382 18.6719 35.7582 19.4239C35.6942 20.1759 35.6382 20.9279 35.5902 21.6799C35.5422 22.4319 35.5182 23.1119 35.5182 23.7199C35.5182 24.2159 35.5502 24.7039 35.6142 25.1839C35.6942 25.6479 35.8542 26.0319 36.0942 26.3359C36.3342 26.6239 36.7022 26.7679 37.1982 26.7679H37.5342L36.9342 30.9439C35.8782 30.9439 35.0062 30.7599 34.3182 30.3919C33.6302 30.0399 33.0782 29.5599 32.6622 28.9519C31.9742 29.7199 31.1902 30.2319 30.3102 30.4879C29.4302 30.7599 28.5182 30.8959 27.5742 30.8959ZM25.0782 24.4399C25.1582 25.2079 25.4702 25.8239 26.0142 26.2879C26.5742 26.7359 27.2782 26.9599 28.1262 26.9599C28.9422 26.9599 29.6222 26.7439 30.1662 26.3119C30.7102 25.8639 31.1582 25.2559 31.5102 24.4879C31.4942 24.2319 31.4862 23.9679 31.4862 23.6959C31.4862 23.1359 31.5022 22.5599 31.5342 21.9679C31.5662 21.3759 31.6062 20.7919 31.6542 20.2159C30.9822 19.9599 30.2782 19.8319 29.5422 19.8319C28.6782 19.8319 27.9022 20.0079 27.2142 20.3599C26.5422 20.6959 26.0142 21.1679 25.6302 21.7759C25.2462 22.3839 25.0542 23.0879 25.0542 23.8879C25.0542 23.9839 25.0542 24.0799 25.0542 24.1759C25.0542 24.2719 25.0622 24.3599 25.0782 24.4399ZM39.2266 35.8159C39.1146 34.5359 39.0346 33.2479 38.9866 31.9519C38.9386 30.6559 38.9146 29.1599 38.9146 27.4639C38.9146 25.3999 38.9466 23.3439 39.0106 21.2959C39.0746 19.2479 39.1706 17.3759 39.2986 15.6799L43.4266 15.7999C43.3786 16.1679 43.3386 16.5599 43.3066 16.9759C43.8826 16.5919 44.4986 16.3119 45.1546 16.1359C45.8266 15.9599 46.5066 15.8719 47.1946 15.8719C48.0746 15.8719 48.9306 16.0159 49.7626 16.3039C50.5946 16.5759 51.3466 17.0159 52.0186 17.6239C52.6906 18.2159 53.2186 18.9839 53.6026 19.9279C54.0026 20.8719 54.2026 22.0079 54.2026 23.3359C54.2026 24.6479 54.0026 25.7919 53.6026 26.7679C53.2026 27.7439 52.6666 28.5439 51.9946 29.1679C51.3226 29.8079 50.5706 30.2799 49.7386 30.5839C48.9066 30.9039 48.0506 31.0639 47.1706 31.0639C45.5546 31.0639 44.1306 30.5839 42.8986 29.6239C42.9306 30.6479 42.9786 31.6319 43.0426 32.5759C43.1066 33.5359 43.1866 34.5119 43.2826 35.5039L39.2266 35.8159ZM46.5466 19.8559C44.9626 19.8559 43.7706 20.6319 42.9706 22.1839C42.9226 23.1439 42.8906 24.1199 42.8746 25.1119C43.2586 25.6239 43.7546 26.0719 44.3626 26.4559C44.9706 26.8239 45.7466 27.0079 46.6906 27.0079C48.9466 27.0079 50.0746 25.7199 50.0746 23.1439C50.0746 22.4559 49.9466 21.8959 49.6906 21.4639C49.4346 21.0319 49.1146 20.7039 48.7306 20.4799C48.3466 20.2399 47.9546 20.0799 47.5546 19.9999C47.1546 19.9039 46.8186 19.8559 46.5466 19.8559ZM55.8845 13.4959C55.8845 13.3519 55.8765 13.2079 55.8605 13.0639C55.8605 12.9039 55.8605 12.7279 55.8605 12.5359C55.8605 12.0239 55.8765 11.4799 55.9085 10.9039C55.9405 10.3279 55.9725 9.83994 56.0045 9.43994L60.2765 9.51194C60.2285 10.0559 60.1725 10.6719 60.1085 11.3599C60.0605 12.0479 60.0285 12.7599 60.0125 13.4959H55.8845ZM55.7885 30.6799C55.7405 29.6879 55.7085 28.6319 55.6925 27.5119C55.6765 26.3759 55.6685 25.2399 55.6685 24.1039C55.6685 22.6159 55.6845 21.1679 55.7165 19.7599C55.7485 18.3519 55.7885 17.0719 55.8365 15.9199L59.9645 15.8959C59.9005 16.6319 59.8605 17.5439 59.8445 18.6319C59.8285 19.7039 59.8205 20.8319 59.8205 22.0159C59.8205 23.1839 59.8285 24.3359 59.8445 25.4719C59.8605 26.6079 59.8765 27.6399 59.8925 28.5679C59.9245 29.4799 59.9485 30.1839 59.9645 30.6799H55.7885ZM69.4846 30.8959C68.5246 30.8959 67.7646 30.6879 67.2046 30.2719C66.6446 29.8719 66.2366 29.3119 65.9806 28.5919C65.7246 27.8719 65.5566 27.0479 65.4766 26.1199C65.4126 25.1919 65.3806 24.2159 65.3806 23.1919C65.3806 22.1359 65.4206 21.0399 65.5006 19.9039C64.4286 20.0479 63.3966 20.2319 62.4046 20.4559L61.6606 16.6879C62.9886 16.3359 64.4046 16.0799 65.9086 15.9199C66.0206 15.1039 66.1406 14.2479 66.2686 13.3519C66.3966 12.4399 66.5406 11.4799 66.7006 10.4719L70.8286 10.8319C70.6366 11.6639 70.4686 12.4959 70.3246 13.3279C70.1806 14.1439 70.0526 14.9359 69.9406 15.7039C70.8366 15.7039 71.6766 15.7279 72.4606 15.7759C73.2606 15.8079 73.9966 15.8719 74.6686 15.9679L74.1886 19.7359C73.6286 19.6719 73.0446 19.6319 72.4366 19.6159C71.8446 19.5839 71.2446 19.5679 70.6366 19.5679C70.2686 19.5679 69.9006 19.5759 69.5326 19.5919C69.4366 20.7599 69.3726 21.7599 69.3406 22.5919C69.3246 23.4239 69.3166 24.0159 69.3166 24.3679C69.3166 25.2479 69.3646 25.8799 69.4606 26.2639C69.5726 26.6479 69.7486 26.8399 69.9886 26.8399C70.2606 26.8399 70.5646 26.7519 70.9006 26.5759C71.2366 26.3839 71.5646 26.1279 71.8846 25.8079C72.2206 25.4879 72.5006 25.1439 72.7246 24.7759L74.5726 28.6399C72.9886 30.1439 71.2926 30.8959 69.4846 30.8959ZM98.5349 30.8959C97.6549 30.8959 96.9269 30.7039 96.3509 30.3199C95.7909 29.9519 95.3429 29.4399 95.0069 28.7839C94.6869 28.1279 94.4469 27.3759 94.2869 26.5279C94.1429 25.6799 94.0469 24.7759 93.9989 23.8159C93.9669 22.8399 93.9509 21.8639 93.9509 20.8879C93.9509 20.0399 93.9749 19.1119 94.0229 18.1039C94.0709 17.0799 94.1269 16.0479 94.1909 15.0079C94.2709 13.9519 94.3509 12.9599 94.4309 12.0319C94.5269 11.1039 94.6149 10.2959 94.6949 9.60794L99.0389 9.65594C98.9109 10.4719 98.7909 11.3999 98.6789 12.4399C98.5669 13.4639 98.4709 14.5039 98.3909 15.5599C98.3269 16.6159 98.2709 17.5919 98.2229 18.4879C98.1909 19.3839 98.1749 20.0959 98.1749 20.6239C98.1749 22.0799 98.1989 23.2239 98.2469 24.0559C98.3109 24.8879 98.3989 25.4799 98.5109 25.8319C98.6389 26.1679 98.8069 26.3359 99.0149 26.3359C99.2869 26.3359 99.5829 26.1679 99.9029 25.8319C100.223 25.4799 100.535 25.0879 100.839 24.6559L102.879 28.7119C102.383 29.2559 101.791 29.7519 101.103 30.1999C100.415 30.6639 99.5589 30.8959 98.5349 30.8959ZM139.634 30.9199C138.098 30.9199 136.746 30.6159 135.578 30.0079C134.426 29.4159 133.522 28.5839 132.866 27.5119C132.226 26.4399 131.906 25.1999 131.906 23.7919C131.906 22.9439 132.05 22.0559 132.338 21.1279C132.626 20.1839 133.09 19.3039 133.73 18.4879C134.37 17.6719 135.21 17.0079 136.25 16.4959C137.306 15.9839 138.586 15.7279 140.09 15.7279C141.178 15.7279 142.09 15.8479 142.826 16.0879C143.578 16.3279 144.186 16.6399 144.65 17.0239C145.13 17.4079 145.49 17.8159 145.73 18.2479C145.986 18.6799 146.154 19.0959 146.234 19.4959C146.33 19.8799 146.378 20.1999 146.378 20.4559C146.378 22.0079 145.722 23.2079 144.41 24.0559C143.114 24.8879 141.274 25.3039 138.89 25.3039C138.346 25.3039 137.826 25.2799 137.33 25.2319C136.85 25.1839 136.402 25.1279 135.986 25.0639C136.29 25.8639 136.794 26.4559 137.498 26.8399C138.202 27.2079 138.93 27.3919 139.682 27.3919C140.77 27.3919 141.73 27.1999 142.562 26.8159C143.394 26.4159 144.178 25.8079 144.914 24.9919L147.05 28.0639C146.538 28.4799 145.962 28.9119 145.322 29.3599C144.698 29.8079 143.93 30.1759 143.018 30.4639C142.106 30.7679 140.978 30.9199 139.634 30.9199ZM140.162 19.3279C139.218 19.3279 138.386 19.5679 137.666 20.0479C136.946 20.5279 136.418 21.1599 136.082 21.9439C136.482 22.0079 136.874 22.0639 137.258 22.1119C137.658 22.1439 138.05 22.1599 138.434 22.1599C138.786 22.1599 139.186 22.1279 139.634 22.0639C140.098 21.9999 140.546 21.9039 140.978 21.7759C141.426 21.6479 141.794 21.4879 142.082 21.2959C142.37 21.0879 142.514 20.8479 142.514 20.5759C142.514 20.4479 142.45 20.2879 142.322 20.0959C142.194 19.9039 141.962 19.7279 141.626 19.5679C141.29 19.4079 140.802 19.3279 140.162 19.3279ZM151.718 31.0399L148.694 28.4239C149.462 27.5279 150.286 26.6239 151.166 25.7119C152.046 24.7839 152.95 23.8639 153.878 22.9519C152.758 21.9759 151.71 21.1039 150.734 20.3359C149.774 19.5519 149.03 18.9999 148.502 18.6799L150.902 15.5119C151.766 16.1359 152.702 16.8479 153.71 17.6479C154.718 18.4479 155.734 19.2959 156.758 20.1919C157.702 19.3279 158.63 18.4879 159.542 17.6719C160.454 16.8399 161.326 16.0559 162.158 15.3199L164.942 18.1999C164.43 18.5679 163.702 19.1759 162.758 20.0239C161.814 20.8559 160.79 21.7839 159.686 22.8079C160.742 23.7679 161.734 24.7199 162.662 25.6639C163.606 26.5919 164.438 27.4559 165.158 28.2559L162.23 30.9199C161.942 30.5679 161.526 30.1119 160.982 29.5519C160.438 28.9919 159.806 28.3679 159.086 27.6799C158.382 26.9919 157.63 26.2879 156.83 25.5679C156.062 26.3199 155.334 27.0479 154.646 27.7519C153.974 28.4559 153.382 29.0879 152.87 29.6479C152.358 30.2239 151.974 30.6879 151.718 31.0399ZM172.378 30.9679C171.354 30.9679 170.506 30.7839 169.834 30.4159C169.178 30.0639 168.65 29.5759 168.25 28.9519C167.866 28.3279 167.578 27.6319 167.386 26.8639C167.21 26.0799 167.09 25.2719 167.026 24.4399C166.978 23.5919 166.954 22.7759 166.954 21.9919C166.954 21.0959 166.978 20.1839 167.026 19.2559C167.09 18.3279 167.154 17.3119 167.218 16.2079L171.61 15.9439C171.562 16.2799 171.49 16.7839 171.394 17.4559C171.298 18.1279 171.21 18.8959 171.13 19.7599C171.05 20.6239 171.01 21.5279 171.01 22.4719C171.01 24.0239 171.146 25.1759 171.418 25.9279C171.69 26.6639 172.098 27.0319 172.642 27.0319C173.73 27.0319 174.53 26.2399 175.042 24.6559C175.554 23.0719 175.81 20.5679 175.81 17.1439V16.0399L177.85 15.9919L180.322 15.9439C180.098 17.4479 179.93 18.8319 179.818 20.0959C179.706 21.3599 179.634 22.4239 179.602 23.2879C179.57 24.1359 179.554 24.7039 179.554 24.9919C179.554 25.7279 179.618 26.2559 179.746 26.5759C179.874 26.8799 180.098 27.0319 180.418 27.0319C180.578 27.0319 180.754 26.9999 180.946 26.9359C181.138 26.8719 181.362 26.7599 181.618 26.5999L181.45 30.7279C180.842 30.8239 180.314 30.8719 179.866 30.8719C179.098 30.8719 178.466 30.7279 177.97 30.4399C177.49 30.1519 177.106 29.7679 176.818 29.2879C176.322 29.8159 175.706 30.2239 174.97 30.5119C174.25 30.8159 173.386 30.9679 172.378 30.9679ZM190.653 30.9919C189.565 30.9919 188.557 30.8639 187.629 30.6079C186.701 30.3519 185.861 30.0239 185.109 29.6239C184.357 29.2239 183.685 28.7999 183.093 28.3519L185.253 24.8719C185.925 25.4959 186.573 25.9759 187.197 26.3119C187.821 26.6479 188.469 26.8799 189.141 27.0079C189.829 27.1359 190.573 27.1999 191.373 27.1999C192.061 27.1999 192.613 27.1119 193.029 26.9359C193.445 26.7439 193.653 26.5039 193.653 26.2159C193.653 25.9759 193.453 25.7919 193.053 25.6639C192.653 25.5199 192.141 25.3999 191.517 25.3039C190.893 25.1919 190.237 25.0559 189.549 24.8959C188.573 24.6399 187.661 24.3439 186.813 24.0079C185.965 23.6719 185.277 23.2159 184.749 22.6399C184.237 22.0639 183.981 21.2959 183.981 20.3359C183.981 19.5679 184.165 18.8959 184.533 18.3199C184.901 17.7279 185.389 17.2399 185.997 16.8559C186.621 16.4559 187.325 16.1599 188.109 15.9679C188.893 15.7759 189.701 15.6799 190.533 15.6799C191.973 15.6799 193.213 15.8559 194.253 16.2079C195.309 16.5439 196.317 16.9919 197.277 17.5519L195.093 20.8639C194.613 20.5279 194.061 20.2399 193.437 19.9999C192.829 19.7439 192.213 19.5519 191.589 19.4239C190.981 19.2799 190.413 19.2079 189.885 19.2079C189.309 19.2079 188.853 19.2959 188.517 19.4719C188.197 19.6479 188.037 19.8959 188.037 20.2159C188.037 20.4079 188.237 20.5919 188.637 20.7679C189.053 20.9279 189.837 21.1439 190.989 21.4159C191.677 21.5759 192.405 21.7439 193.173 21.9199C193.941 22.0799 194.661 22.3119 195.333 22.6159C196.021 22.9039 196.573 23.3279 196.989 23.8879C197.421 24.4319 197.637 25.1599 197.637 26.0719C197.637 27.6079 197.021 28.8079 195.789 29.6719C194.557 30.5519 192.845 30.9919 190.653 30.9919Z"
              fill="white"
            />
            <path
              d="M111 30.7519C111 28.2559 111.032 26.0079 111.096 24.0079C111.176 21.9919 111.272 20.1599 111.384 18.5119C111.512 16.8479 111.648 15.3039 111.792 13.8799C111.952 12.4399 112.104 11.0639 112.248 9.75193L116.376 9.91993C116.312 10.4159 116.24 10.9519 116.16 11.5279C116.704 12.2639 117.296 13.1039 117.936 14.0479C118.592 14.9919 119.256 15.9919 119.928 17.0479C120.616 18.0879 121.288 19.1359 121.944 20.1919C122.6 21.2319 123.224 22.2319 123.816 23.1919C124.408 24.1359 124.928 24.9839 125.376 25.7359C125.488 24.6319 125.544 23.0799 125.544 21.0799C125.544 20.0559 125.528 18.9999 125.496 17.9119C125.464 16.8239 125.424 15.7839 125.376 14.7919C125.328 13.7839 125.264 12.8879 125.184 12.1039C125.104 11.3039 125.016 10.6799 124.92 10.2319L129.432 9.67993C129.464 10.4639 129.48 11.4959 129.48 12.7759C129.496 14.0399 129.504 15.3839 129.504 16.8079C129.504 18.0719 129.496 19.3439 129.48 20.6239C129.464 21.8879 129.432 23.0559 129.384 24.1279C129.336 25.1999 129.264 26.0879 129.168 26.7919C128.992 28.1679 128.64 29.1839 128.112 29.8399C127.584 30.4959 126.84 30.8239 125.88 30.8239C125.096 30.8239 124.376 30.5519 123.72 30.0079C123.08 29.4639 122.384 28.5679 121.632 27.3199C121.12 26.4559 120.52 25.4639 119.832 24.3439C119.16 23.2079 118.456 22.0479 117.72 20.8639C117 19.6799 116.304 18.5519 115.632 17.4799C115.504 19.3519 115.408 21.2239 115.344 23.0959C115.28 24.9519 115.248 26.6319 115.248 28.1359C115.248 28.6159 115.248 29.0639 115.248 29.4799C115.248 29.9119 115.256 30.3119 115.272 30.6799L111 30.7519Z"
              fill="#0052FF"
            />
            <path
              d="M76 29L38.689 39.6787C35.5949 40.5586 32.996 41 30.8944 41C28.5144 41 26.7867 40.4401 25.7157 39.3188C25.0421 38.5989 24.8445 37.6861 25.1207 36.5791C25.397 35.4721 26.1322 34.2937 27.3222 33.0395C28.3146 32.0254 29.9403 30.6927 32.2034 29.04C31.4358 29.8523 30.8729 30.7442 30.5374 31.6797C29.9424 33.3866 30.4779 34.6393 32.1439 35.4392C32.9365 35.812 34.0267 35.9992 35.4164 35.9992C36.5257 35.9992 37.7752 35.8792 39.165 35.6392L76 29Z"
              fill="#0052FF"
            />
            <g clipPath="url(#clip1_812_2567)">
              <path
                d="M85.0914 11.5401C84.8566 11.5682 77.537 16.4761 77.4948 16.6251C77.4527 16.7756 77.4358 18.3393 77.4358 18.3393L78.3794 18.6389L78.3836 19.882L78.8884 20.9156V25.2848L78.5116 26.1075L77.478 26.4126V27.1523L76.668 27.3984C76.668 27.3984 76.6792 28.0326 76.6792 28.1381C76.6792 28.2436 76.7144 28.4671 77.1377 28.4671C77.5609 28.4671 93.01 28.3954 93.1661 28.3954C93.3222 28.3954 93.4839 28.3645 93.4923 28.0846C93.5008 27.8048 93.4839 27.4096 93.4839 27.4096L92.6992 27.0215L92.6964 26.4014L91.4195 26.0076L91.1116 25.1357L91.1158 21.0281L91.6052 19.9959L91.7528 19.7161V18.6051L92.5755 18.2943C92.5755 18.2943 92.5909 16.687 92.567 16.6406C92.5459 16.5956 85.2855 11.5176 85.0914 11.5401Z"
                fill="#CDDFEE"
              />
              <path
                d="M78.155 16.9513C78.1114 17.0596 78.1002 17.8584 78.1395 17.8978C78.1789 17.9371 91.7717 17.916 91.8181 17.8781C91.8645 17.8401 91.8716 16.9724 91.8491 16.919C91.8266 16.8656 87.9945 14.2485 87.9945 14.2485L82.07 14.2781C82.0686 14.2781 78.1803 16.8867 78.155 16.9513ZM76.6658 27.4012C76.6531 27.3703 76.6658 27.224 76.6658 27.1649C76.6658 27.1059 76.722 27.0384 76.8486 27.0384C76.9752 27.0384 93.0402 27.0159 93.1189 27.0187C93.3172 27.0257 93.4508 27.0679 93.4705 27.1945C93.4902 27.321 93.4831 27.4124 93.4831 27.4124L76.6658 27.4012ZM92.6956 26.4028L77.4772 26.414C77.4772 26.414 77.4828 26.2579 77.4828 26.2045C77.4828 26.151 77.5109 26.0638 77.6923 26.0638C77.8738 26.0638 92.3061 26.009 92.4298 26.009C92.5536 26.009 92.6886 26.0667 92.7055 26.1524C92.7223 26.2382 92.6956 26.4028 92.6956 26.4028ZM91.2233 25.4606L91.1108 25.1315L78.8834 25.1287L78.792 25.4957L91.2233 25.4606ZM78.7428 20.616L91.295 20.6596L91.115 21.0281L78.8877 21.0745L78.7428 20.616ZM78.4686 20.0985C78.4686 20.0985 78.3575 20.0184 78.3392 19.9129C78.3209 19.8074 78.3702 19.7456 78.3702 19.7456L91.752 19.716C91.752 19.716 91.8027 19.8201 91.7591 19.8932C91.7155 19.9678 91.5917 20.0353 91.5917 20.0353L78.4686 20.0985ZM77.4336 18.3393L92.5747 18.2943C92.5747 18.2943 92.5845 18.4392 92.5747 18.4996C92.5663 18.5601 92.4875 18.6135 92.2864 18.6135H92.0853C92.0853 18.6135 77.9117 18.6838 77.7542 18.6838C77.5967 18.6838 77.4842 18.5967 77.4575 18.5263C77.442 18.4799 77.4336 18.3393 77.4336 18.3393Z"
                fill="#94ADBC"
              />
              <path
                d="M78.5312 17.3322L81.7164 15.1821L81.9302 17.3744L78.5312 17.3322ZM88.3103 15.1104L91.4997 17.3604H88.2245L88.3103 15.1104Z"
                fill="#657582"
              />
              <path
                d="M80.6994 20.0886L81.2239 20.0872L81.6345 21.0729L81.5966 25.1314L81.2548 26.0511L80.6445 26.0525L80.3084 25.137L80.293 21.0645L80.6994 20.0886ZM83.4922 20.0745L82.9705 21.0504L83.0098 25.1314L83.3192 26.044L86.7266 26.03L87.0331 25.1314L87.0416 21.042L86.6436 20.059L83.4922 20.0745ZM88.85 20.0492L89.3127 20.0464L89.7219 21.0322L89.7205 25.1328L89.4828 26.0215L88.7108 26.0229L88.4745 25.1328L88.4562 21.0364L88.85 20.0492Z"
                fill="#54636E"
              />
              <path
                d="M83.6797 26.0427V22.9138L86.4247 22.9405L86.4303 26.0343L83.6797 26.0427Z"
                fill="#6BA4AE"
              />
              <path
                d="M84.8959 22.7717L84.8945 26.0384L85.1786 26.037V22.8195L84.8959 22.7717Z"
                fill="#A5D0D7"
              />
              <path
                d="M83.6797 23.0628V22.2781H86.4247V23.0628C86.4247 23.0628 83.7036 23.0389 83.6797 23.0628Z"
                fill="#95ACBC"
              />
              <path
                d="M83.6799 22.278H86.4249C86.4249 22.278 86.4361 22.0333 86.1816 22.0094C85.9271 21.9855 84.0568 22.0052 83.8993 22.0094C83.6644 22.0165 83.6799 22.278 83.6799 22.278Z"
                fill="#CCDEED"
              />
              <path
                d="M85.0565 12.5623C83.0188 12.575 81.4059 14.1866 81.4748 16.2242C81.5437 18.2619 83.4126 19.6948 85.0565 19.6822C86.782 19.6695 88.5988 18.4348 88.6804 16.213C88.7634 13.9925 86.8931 12.5497 85.0565 12.5623Z"
                fill="#CDDFEE"
              />
              <path
                d="M85.0661 13.0504C83.3604 13.0616 81.9949 14.4608 82.0525 16.2355C82.1088 18.0102 83.6107 19.1352 84.9874 19.1479C86.575 19.1619 88.0361 18.1241 88.1036 16.1905C88.1711 14.2569 86.6032 13.0405 85.0661 13.0504Z"
                fill="#94ADBC"
              />
              <path
                d="M84.5772 14.0416C84.5772 14.0416 84.5463 13.4988 84.5843 13.4524C84.6222 13.406 84.7769 13.406 85.0765 13.406C85.3774 13.406 85.4997 13.406 85.5462 13.444C85.5926 13.4819 85.5687 14.0754 85.5687 14.0754C85.5687 14.0754 85.9765 14.2287 86.231 14.4255C86.501 14.6337 86.6937 14.9107 86.6782 14.9571C86.6627 15.0035 86.1241 15.4732 86.0468 15.4577C85.9694 15.4423 85.5307 14.929 85.0076 14.8952C84.1765 14.8418 84.1835 15.4887 84.6996 15.6658C85.2157 15.843 86.8427 15.9837 86.7794 17.2788C86.726 18.3687 85.6249 18.446 85.6249 18.446C85.6249 18.446 85.6558 18.8538 85.6249 18.8777C85.594 18.9016 84.6237 18.9157 84.5927 18.8707C84.5618 18.8257 84.5857 18.408 84.5857 18.408C84.5857 18.408 84.154 18.3237 83.7996 18.0846C83.4452 17.8455 83.1907 17.5305 83.1837 17.4912C83.1766 17.4532 83.808 16.9216 83.853 16.9062C83.898 16.8907 84.5407 17.5235 85.1468 17.5755C85.7627 17.629 86.0243 17.0215 85.1693 16.7599C84.3143 16.4983 83.306 16.2748 83.3524 15.2046C83.3988 14.1176 84.5772 14.0416 84.5772 14.0416Z"
                fill="#024FAC"
              />
            </g>
          </g>
          <path
            d="M139.216 6.36364C139.216 7.14725 139.069 7.81842 138.776 8.37713C138.484 8.93348 138.087 9.35961 137.582 9.65554C137.08 9.95147 136.511 10.0994 135.874 10.0994C135.237 10.0994 134.667 9.95147 134.163 9.65554C133.661 9.35724 133.263 8.92992 132.969 8.37358C132.678 7.81487 132.533 7.14489 132.533 6.36364C132.533 5.58002 132.678 4.91004 132.969 4.35369C133.263 3.79498 133.661 3.36766 134.163 3.07173C134.667 2.7758 135.237 2.62784 135.874 2.62784C136.511 2.62784 137.08 2.7758 137.582 3.07173C138.087 3.36766 138.484 3.79498 138.776 4.35369C139.069 4.91004 139.216 5.58002 139.216 6.36364ZM137.891 6.36364C137.891 5.81203 137.805 5.34683 137.632 4.96804C137.462 4.58688 137.225 4.29924 136.922 4.10511C136.619 3.90862 136.27 3.81037 135.874 3.81037C135.479 3.81037 135.13 3.90862 134.827 4.10511C134.524 4.29924 134.286 4.58688 134.113 4.96804C133.942 5.34683 133.857 5.81203 133.857 6.36364C133.857 6.91525 133.942 7.38163 134.113 7.76278C134.286 8.14157 134.524 8.42921 134.827 8.62571C135.13 8.81984 135.479 8.9169 135.874 8.9169C136.27 8.9169 136.619 8.81984 136.922 8.62571C137.225 8.42921 137.462 8.14157 137.632 7.76278C137.805 7.38163 137.891 6.91525 137.891 6.36364ZM141.19 6.80398V10H139.905V4.54545H141.133V5.4723H141.197C141.323 5.1669 141.523 4.92424 141.797 4.74432C142.074 4.56439 142.416 4.47443 142.824 4.47443C143.2 4.47443 143.528 4.55492 143.807 4.71591C144.089 4.87689 144.307 5.11009 144.461 5.41548C144.617 5.72088 144.694 6.09138 144.692 6.52699V10H143.406V6.72585C143.406 6.36127 143.311 6.07599 143.122 5.87003C142.935 5.66406 142.676 5.56108 142.344 5.56108C142.119 5.56108 141.919 5.6108 141.744 5.71023C141.571 5.80729 141.435 5.94815 141.336 6.13281C141.239 6.31747 141.19 6.54119 141.19 6.80398ZM146.784 2.72727V10H145.498V2.72727H146.784ZM147.606 10V4.54545H148.891V10H147.606ZM148.252 3.77131C148.049 3.77131 147.873 3.70384 147.727 3.56889C147.58 3.43158 147.506 3.26705 147.506 3.07528C147.506 2.88116 147.58 2.71662 147.727 2.58168C147.873 2.44437 148.049 2.37571 148.252 2.37571C148.458 2.37571 148.633 2.44437 148.778 2.58168C148.924 2.71662 148.998 2.88116 148.998 3.07528C148.998 3.26705 148.924 3.43158 148.778 3.56889C148.633 3.70384 148.458 3.77131 148.252 3.77131ZM150.999 6.80398V10H149.713V4.54545H150.942V5.4723H151.006C151.131 5.1669 151.331 4.92424 151.606 4.74432C151.883 4.56439 152.225 4.47443 152.632 4.47443C153.009 4.47443 153.337 4.55492 153.616 4.71591C153.898 4.87689 154.115 5.11009 154.269 5.41548C154.426 5.72088 154.503 6.09138 154.5 6.52699V10H153.215V6.72585C153.215 6.36127 153.12 6.07599 152.931 5.87003C152.744 5.66406 152.484 5.56108 152.153 5.56108C151.928 5.56108 151.728 5.6108 151.553 5.71023C151.38 5.80729 151.244 5.94815 151.144 6.13281C151.047 6.31747 150.999 6.54119 150.999 6.80398ZM157.722 10.1065C157.175 10.1065 156.703 9.9929 156.305 9.76562C155.91 9.53598 155.605 9.21165 155.392 8.79261C155.179 8.37121 155.073 7.87524 155.073 7.30469C155.073 6.74361 155.179 6.25118 155.392 5.82741C155.608 5.40128 155.908 5.06984 156.294 4.8331C156.68 4.59399 157.133 4.47443 157.654 4.47443C157.99 4.47443 158.308 4.52888 158.606 4.63778C158.907 4.74432 159.172 4.91004 159.401 5.13494C159.633 5.35985 159.816 5.64631 159.948 5.99432C160.081 6.33996 160.147 6.75189 160.147 7.23011V7.62429H155.676V6.75781H158.915C158.913 6.5116 158.859 6.29261 158.755 6.10085C158.651 5.90672 158.505 5.75402 158.318 5.64276C158.134 5.53149 157.918 5.47585 157.672 5.47585C157.409 5.47585 157.178 5.53977 156.98 5.66761C156.781 5.79309 156.626 5.95881 156.514 6.16477C156.405 6.36837 156.35 6.59209 156.347 6.83594V7.59233C156.347 7.90956 156.405 8.18182 156.521 8.40909C156.637 8.634 156.8 8.80682 157.008 8.92756C157.216 9.04593 157.46 9.10511 157.74 9.10511C157.927 9.10511 158.096 9.07907 158.247 9.02699C158.399 8.97254 158.53 8.89323 158.642 8.78906C158.753 8.6849 158.837 8.55587 158.894 8.40199L160.094 8.53693C160.018 8.85417 159.874 9.13116 159.661 9.3679C159.45 9.60227 159.18 9.78456 158.851 9.91477C158.522 10.0426 158.146 10.1065 157.722 10.1065Z"
            fill="white"
          />
          <path
            d="M162.772 10V2.72727H165.556C166.082 2.72727 166.518 2.81013 166.866 2.97585C167.217 3.1392 167.478 3.36293 167.651 3.64702C167.826 3.93111 167.914 4.25308 167.914 4.61293C167.914 4.90885 167.857 5.16217 167.744 5.37287C167.63 5.5812 167.477 5.75047 167.286 5.88068C167.094 6.01089 166.879 6.1044 166.643 6.16122V6.23224C166.901 6.24645 167.148 6.32576 167.385 6.47017C167.624 6.61222 167.819 6.81345 167.971 7.07386C168.122 7.33428 168.198 7.64915 168.198 8.01847C168.198 8.39489 168.107 8.73343 167.925 9.03409C167.742 9.33239 167.468 9.56795 167.101 9.74077C166.734 9.91359 166.272 10 165.716 10H162.772ZM164.089 8.89915H165.506C165.985 8.89915 166.329 8.808 166.54 8.62571C166.753 8.44105 166.859 8.20431 166.859 7.91548C166.859 7.70005 166.806 7.50592 166.7 7.3331C166.593 7.15791 166.442 7.0206 166.245 6.92116C166.049 6.81937 165.814 6.76847 165.542 6.76847H164.089V8.89915ZM164.089 5.82031H165.393C165.62 5.82031 165.825 5.77888 166.007 5.69602C166.189 5.6108 166.333 5.49124 166.437 5.33736C166.543 5.18111 166.597 4.99645 166.597 4.78338C166.597 4.50166 166.497 4.26965 166.298 4.08736C166.102 3.90507 165.809 3.81392 165.421 3.81392H164.089V5.82031ZM170.357 10.1101C170.011 10.1101 169.7 10.0485 169.423 9.92543C169.148 9.79995 168.931 9.61529 168.77 9.37145C168.611 9.1276 168.532 8.82694 168.532 8.46946C168.532 8.1617 168.589 7.9072 168.702 7.70597C168.816 7.50473 168.971 7.34375 169.167 7.22301C169.364 7.10227 169.585 7.01113 169.831 6.94957C170.08 6.88565 170.337 6.83949 170.602 6.81108C170.922 6.77794 171.181 6.74834 171.38 6.7223C171.579 6.69389 171.723 6.65128 171.813 6.59446C171.905 6.53527 171.952 6.44413 171.952 6.32102V6.29972C171.952 6.0322 171.872 5.82505 171.714 5.67827C171.555 5.53149 171.327 5.4581 171.028 5.4581C170.713 5.4581 170.464 5.52675 170.279 5.66406C170.097 5.80137 169.974 5.96354 169.91 6.15057L168.709 5.98011C168.804 5.64867 168.96 5.37169 169.178 5.14915C169.396 4.92424 169.662 4.75616 169.977 4.64489C170.292 4.53125 170.64 4.47443 171.021 4.47443C171.284 4.47443 171.546 4.50521 171.806 4.56676C172.066 4.62831 172.304 4.73011 172.52 4.87216C172.735 5.01184 172.908 5.20241 173.038 5.44389C173.171 5.68537 173.237 5.98722 173.237 6.34943V10H172.001V9.25071H171.959C171.881 9.40223 171.77 9.54427 171.628 9.67685C171.489 9.80705 171.312 9.91241 171.099 9.9929C170.889 10.071 170.641 10.1101 170.357 10.1101ZM170.691 9.16548C170.949 9.16548 171.173 9.11458 171.362 9.01278C171.551 8.90862 171.697 8.77131 171.799 8.60085C171.903 8.4304 171.955 8.24455 171.955 8.04332V7.40057C171.915 7.43371 171.846 7.46449 171.749 7.4929C171.654 7.52131 171.548 7.54616 171.43 7.56747C171.311 7.58878 171.194 7.60772 171.078 7.62429C170.962 7.64086 170.861 7.65507 170.776 7.6669C170.584 7.69294 170.413 7.73556 170.261 7.79474C170.11 7.85393 169.99 7.93679 169.903 8.04332C169.815 8.14749 169.771 8.28243 169.771 8.44815C169.771 8.6849 169.858 8.86364 170.03 8.98438C170.203 9.10511 170.423 9.16548 170.691 9.16548ZM175.315 6.80398V10H174.03V4.54545H175.258V5.4723H175.322C175.448 5.1669 175.648 4.92424 175.922 4.74432C176.199 4.56439 176.541 4.47443 176.949 4.47443C177.325 4.47443 177.653 4.55492 177.932 4.71591C178.214 4.87689 178.432 5.11009 178.586 5.41548C178.742 5.72088 178.819 6.09138 178.817 6.52699V10H177.531V6.72585C177.531 6.36127 177.436 6.07599 177.247 5.87003C177.06 5.66406 176.801 5.56108 176.469 5.56108C176.244 5.56108 176.044 5.6108 175.869 5.71023C175.696 5.80729 175.56 5.94815 175.461 6.13281C175.364 6.31747 175.315 6.54119 175.315 6.80398ZM180.795 8.28835L180.792 6.73651H180.998L182.958 4.54545H184.46L182.049 7.23011H181.782L180.795 8.28835ZM179.623 10V2.72727H180.909V10H179.623ZM183.047 10L181.271 7.51776L182.138 6.61222L184.584 10H183.047ZM184.817 10V4.54545H186.102V10H184.817ZM185.463 3.77131C185.259 3.77131 185.084 3.70384 184.938 3.56889C184.791 3.43158 184.717 3.26705 184.717 3.07528C184.717 2.88116 184.791 2.71662 184.938 2.58168C185.084 2.44437 185.259 2.37571 185.463 2.37571C185.669 2.37571 185.844 2.44437 185.989 2.58168C186.135 2.71662 186.209 2.88116 186.209 3.07528C186.209 3.26705 186.135 3.43158 185.989 3.56889C185.844 3.70384 185.669 3.77131 185.463 3.77131ZM188.21 6.80398V10H186.924V4.54545H188.153V5.4723H188.217C188.342 5.1669 188.542 4.92424 188.817 4.74432C189.094 4.56439 189.436 4.47443 189.843 4.47443C190.22 4.47443 190.548 4.55492 190.827 4.71591C191.109 4.87689 191.326 5.11009 191.48 5.41548C191.637 5.72088 191.713 6.09138 191.711 6.52699V10H190.426V6.72585C190.426 6.36127 190.331 6.07599 190.142 5.87003C189.954 5.66406 189.695 5.56108 189.364 5.56108C189.139 5.56108 188.939 5.6108 188.764 5.71023C188.591 5.80729 188.455 5.94815 188.355 6.13281C188.258 6.31747 188.21 6.54119 188.21 6.80398ZM194.89 12.1591C194.428 12.1591 194.032 12.0964 193.7 11.9709C193.369 11.8478 193.103 11.6821 192.901 11.4737C192.7 11.2654 192.561 11.0346 192.482 10.7812L193.64 10.5007C193.692 10.6072 193.768 10.7126 193.867 10.8168C193.967 10.9233 194.101 11.0109 194.269 11.0795C194.439 11.1506 194.653 11.1861 194.911 11.1861C195.276 11.1861 195.578 11.0973 195.817 10.9197C196.056 10.7446 196.176 10.4557 196.176 10.0533V9.01989H196.112C196.045 9.15246 195.948 9.28859 195.82 9.42827C195.695 9.56795 195.528 9.68513 195.32 9.77983C195.114 9.87453 194.855 9.92188 194.542 9.92188C194.123 9.92188 193.743 9.82363 193.402 9.62713C193.064 9.42827 192.794 9.13234 192.593 8.73935C192.394 8.34399 192.294 7.8492 192.294 7.25497C192.294 6.65601 192.394 6.15057 192.593 5.73864C192.794 5.32434 193.065 5.01065 193.406 4.79759C193.747 4.58215 194.127 4.47443 194.546 4.47443C194.865 4.47443 195.128 4.52888 195.334 4.63778C195.542 4.74432 195.708 4.87334 195.831 5.02486C195.954 5.17401 196.048 5.31487 196.112 5.44744H196.183V4.54545H197.45V10.0888C197.45 10.5552 197.339 10.9411 197.117 11.2464C196.894 11.5518 196.59 11.7803 196.204 11.9318C195.818 12.0833 195.38 12.1591 194.89 12.1591ZM194.901 8.91335C195.173 8.91335 195.405 8.84706 195.597 8.71449C195.789 8.58191 195.934 8.39134 196.034 8.14276C196.133 7.89418 196.183 7.59588 196.183 7.24787C196.183 6.90459 196.133 6.60393 196.034 6.34588C195.936 6.08783 195.792 5.88778 195.6 5.74574C195.411 5.60133 195.178 5.52912 194.901 5.52912C194.614 5.52912 194.375 5.60369 194.183 5.75284C193.992 5.90199 193.847 6.10677 193.75 6.36719C193.653 6.62524 193.605 6.9188 193.605 7.24787C193.605 7.58168 193.653 7.87405 193.75 8.125C193.85 8.37358 193.995 8.56771 194.187 8.70739C194.381 8.8447 194.619 8.91335 194.901 8.91335Z"
            fill="#0052FF"
          />
          <defs>
            <clipPath id="clip0_812_2567">
              <rect
                width="198"
                height="32"
                fill="white"
                transform="translate(0 9)"
              />
            </clipPath>
            <clipPath id="clip1_812_2567">
              <rect
                width="18"
                height="18"
                fill="white"
                transform="translate(76 11)"
              />
            </clipPath>
          </defs>
        </svg>