<svg xmlns="http://www.w3.org/2000/svg" version="1.1" xmlns:xlink="http://www.w3.org/1999/xlink" xmlns:svgjs="http://svgjs.dev/svgjs" viewBox="0 0 800 800" width="800" height="800"><g stroke-width="3.5" stroke="#0013bb" fill="none"><rect width="14.473684210526315" height="14.473684210526315" x="-7.2368421052631575" y="-7.2368421052631575" fill="#0013bb" stroke="none" transform="rotate(45, 0, 0)"></rect><rect width="14.473684210526315" height="14.473684210526315" x="126.09649122807019" y="-7.2368421052631575" fill="#0013bb" stroke="none" transform="rotate(45, 133.33333333333334, 0)"></rect><rect width="14.473684210526315" height="14.473684210526315" x="259.4298245614035" y="-7.2368421052631575" fill="#0013bb" stroke="none" transform="rotate(45, 266.6666666666667, 0)"></rect><rect width="14.473684210526315" height="14.473684210526315" x="392.7631578947368" y="-7.2368421052631575" fill="#0013bb" stroke="none" transform="rotate(45, 400, 0)"></rect><rect width="14.473684210526315" height="14.473684210526315" x="526.0964912280702" y="-7.2368421052631575" fill="#0013bb" stroke="none" transform="rotate(45, 533.3333333333334, 0)"></rect><rect width="14.473684210526315" height="14.473684210526315" x="659.4298245614036" y="-7.2368421052631575" fill="#0013bb" stroke="none" transform="rotate(45, 666.6666666666667, 0)"></rect><rect width="14.473684210526315" height="14.473684210526315" x="792.763157894737" y="-7.2368421052631575" fill="#0013bb" stroke="none" transform="rotate(45, 800.0000000000001, 0)"></rect><rect width="14.473684210526315" height="14.473684210526315" x="-7.2368421052631575" y="126.09649122807019" fill="#0013bb" stroke="none" transform="rotate(45, 0, 133.33333333333334)"></rect><rect width="14.473684210526315" height="14.473684210526315" x="126.09649122807019" y="126.09649122807019" fill="#0013bb" stroke="none" transform="rotate(45, 133.33333333333334, 133.33333333333334)"></rect><rect width="14.473684210526315" height="14.473684210526315" x="259.4298245614035" y="126.09649122807019" fill="#0013bb" stroke="none" transform="rotate(45, 266.6666666666667, 133.33333333333334)"></rect><rect width="14.473684210526315" height="14.473684210526315" x="392.7631578947368" y="126.09649122807019" fill="#0013bb" stroke="none" transform="rotate(45, 400, 133.33333333333334)"></rect><rect width="14.473684210526315" height="14.473684210526315" x="526.0964912280702" y="126.09649122807019" fill="#0013bb" stroke="none" transform="rotate(45, 533.3333333333334, 133.33333333333334)"></rect><rect width="14.473684210526315" height="14.473684210526315" x="659.4298245614036" y="126.09649122807019" fill="#0013bb" stroke="none" transform="rotate(45, 666.6666666666667, 133.33333333333334)"></rect><rect width="14.473684210526315" height="14.473684210526315" x="792.763157894737" y="126.09649122807019" fill="#0013bb" stroke="none" transform="rotate(45, 800.0000000000001, 133.33333333333334)"></rect><rect width="14.473684210526315" height="14.473684210526315" x="-7.2368421052631575" y="259.4298245614035" fill="#0013bb" stroke="none" transform="rotate(45, 0, 266.6666666666667)"></rect><rect width="14.473684210526315" height="14.473684210526315" x="126.09649122807019" y="259.4298245614035" fill="#0013bb" stroke="none" transform="rotate(45, 133.33333333333334, 266.6666666666667)"></rect><rect width="14.473684210526315" height="14.473684210526315" x="259.4298245614035" y="259.4298245614035" fill="#0013bb" stroke="none" transform="rotate(45, 266.6666666666667, 266.6666666666667)"></rect><rect width="14.473684210526315" height="14.473684210526315" x="392.7631578947368" y="259.4298245614035" fill="#0013bb" stroke="none" transform="rotate(45, 400, 266.6666666666667)"></rect><rect width="14.473684210526315" height="14.473684210526315" x="526.0964912280702" y="259.4298245614035" fill="#0013bb" stroke="none" transform="rotate(45, 533.3333333333334, 266.6666666666667)"></rect><rect width="14.473684210526315" height="14.473684210526315" x="659.4298245614036" y="259.4298245614035" fill="#0013bb" stroke="none" transform="rotate(45, 666.6666666666667, 266.6666666666667)"></rect><rect width="14.473684210526315" height="14.473684210526315" x="792.763157894737" y="259.4298245614035" fill="#0013bb" stroke="none" transform="rotate(45, 800.0000000000001, 266.6666666666667)"></rect><rect width="14.473684210526315" height="14.473684210526315" x="-7.2368421052631575" y="392.7631578947368" fill="#0013bb" stroke="none" transform="rotate(45, 0, 400)"></rect><rect width="14.473684210526315" height="14.473684210526315" x="126.09649122807019" y="392.7631578947368" fill="#0013bb" stroke="none" transform="rotate(45, 133.33333333333334, 400)"></rect><rect width="14.473684210526315" height="14.473684210526315" x="259.4298245614035" y="392.7631578947368" fill="#0013bb" stroke="none" transform="rotate(45, 266.6666666666667, 400)"></rect><rect width="14.473684210526315" height="14.473684210526315" x="392.7631578947368" y="392.7631578947368" fill="#0013bb" stroke="none" transform="rotate(45, 400, 400)"></rect><rect width="14.473684210526315" height="14.473684210526315" x="526.0964912280702" y="392.7631578947368" fill="#0013bb" stroke="none" transform="rotate(45, 533.3333333333334, 400)"></rect><rect width="14.473684210526315" height="14.473684210526315" x="659.4298245614036" y="392.7631578947368" fill="#0013bb" stroke="none" transform="rotate(45, 666.6666666666667, 400)"></rect><rect width="14.473684210526315" height="14.473684210526315" x="792.763157894737" y="392.7631578947368" fill="#0013bb" stroke="none" transform="rotate(45, 800.0000000000001, 400)"></rect><rect width="14.473684210526315" height="14.473684210526315" x="-7.2368421052631575" y="526.0964912280702" fill="#0013bb" stroke="none" transform="rotate(45, 0, 533.3333333333334)"></rect><rect width="14.473684210526315" height="14.473684210526315" x="126.09649122807019" y="526.0964912280702" fill="#0013bb" stroke="none" transform="rotate(45, 133.33333333333334, 533.3333333333334)"></rect><rect width="14.473684210526315" height="14.473684210526315" x="259.4298245614035" y="526.0964912280702" fill="#0013bb" stroke="none" transform="rotate(45, 266.6666666666667, 533.3333333333334)"></rect><rect width="14.473684210526315" height="14.473684210526315" x="392.7631578947368" y="526.0964912280702" fill="#0013bb" stroke="none" transform="rotate(45, 400, 533.3333333333334)"></rect><rect width="14.473684210526315" height="14.473684210526315" x="526.0964912280702" y="526.0964912280702" fill="#0013bb" stroke="none" transform="rotate(45, 533.3333333333334, 533.3333333333334)"></rect><rect width="14.473684210526315" height="14.473684210526315" x="659.4298245614036" y="526.0964912280702" fill="#0013bb" stroke="none" transform="rotate(45, 666.6666666666667, 533.3333333333334)"></rect><rect width="14.473684210526315" height="14.473684210526315" x="792.763157894737" y="526.0964912280702" fill="#0013bb" stroke="none" transform="rotate(45, 800.0000000000001, 533.3333333333334)"></rect><rect width="14.473684210526315" height="14.473684210526315" x="-7.2368421052631575" y="659.4298245614036" fill="#0013bb" stroke="none" transform="rotate(45, 0, 666.6666666666667)"></rect><rect width="14.473684210526315" height="14.473684210526315" x="126.09649122807019" y="659.4298245614036" fill="#0013bb" stroke="none" transform="rotate(45, 133.33333333333334, 666.6666666666667)"></rect><rect width="14.473684210526315" height="14.473684210526315" x="259.4298245614035" y="659.4298245614036" fill="#0013bb" stroke="none" transform="rotate(45, 266.6666666666667, 666.6666666666667)"></rect><rect width="14.473684210526315" height="14.473684210526315" x="392.7631578947368" y="659.4298245614036" fill="#0013bb" stroke="none" transform="rotate(45, 400, 666.6666666666667)"></rect><rect width="14.473684210526315" height="14.473684210526315" x="526.0964912280702" y="659.4298245614036" fill="#0013bb" stroke="none" transform="rotate(45, 533.3333333333334, 666.6666666666667)"></rect><rect width="14.473684210526315" height="14.473684210526315" x="659.4298245614036" y="659.4298245614036" fill="#0013bb" stroke="none" transform="rotate(45, 666.6666666666667, 666.6666666666667)"></rect><rect width="14.473684210526315" height="14.473684210526315" x="792.763157894737" y="659.4298245614036" fill="#0013bb" stroke="none" transform="rotate(45, 800.0000000000001, 666.6666666666667)"></rect><rect width="14.473684210526315" height="14.473684210526315" x="-7.2368421052631575" y="792.763157894737" fill="#0013bb" stroke="none" transform="rotate(45, 0, 800.0000000000001)"></rect><rect width="14.473684210526315" height="14.473684210526315" x="126.09649122807019" y="792.763157894737" fill="#0013bb" stroke="none" transform="rotate(45, 133.33333333333334, 800.0000000000001)"></rect><rect width="14.473684210526315" height="14.473684210526315" x="259.4298245614035" y="792.763157894737" fill="#0013bb" stroke="none" transform="rotate(45, 266.6666666666667, 800.0000000000001)"></rect><rect width="14.473684210526315" height="14.473684210526315" x="392.7631578947368" y="792.763157894737" fill="#0013bb" stroke="none" transform="rotate(45, 400, 800.0000000000001)"></rect><rect width="14.473684210526315" height="14.473684210526315" x="526.0964912280702" y="792.763157894737" fill="#0013bb" stroke="none" transform="rotate(45, 533.3333333333334, 800.0000000000001)"></rect><rect width="14.473684210526315" height="14.473684210526315" x="659.4298245614036" y="792.763157894737" fill="#0013bb" stroke="none" transform="rotate(45, 666.6666666666667, 800.0000000000001)"></rect><rect width="14.473684210526315" height="14.473684210526315" x="792.763157894737" y="792.763157894737" fill="#0013bb" stroke="none" transform="rotate(45, 800.0000000000001, 800.0000000000001)"></rect></g></svg>