<svg xmlns="http://www.w3.org/2000/svg" version="1.1" xmlns:xlink="http://www.w3.org/1999/xlink" xmlns:svgjs="http://svgjs.dev/svgjs" viewBox="0 0 800 800" opacity="1"><defs><filter id="bbburst-blur-1" x="-100%" y="-100%" width="400%" height="400%"><feGaussianBlur in="SourceGraphic" stdDeviation="1"></feGaussianBlur></filter><filter id="bbburst-blur-2" x="-100%" y="-100%" width="400%" height="400%"><feGaussianBlur in="SourceGraphic" stdDeviation="2"></feGaussianBlur></filter><filter id="bbburst-blur-3" x="-100%" y="-100%" width="400%" height="400%"><feGaussianBlur in="SourceGraphic" stdDeviation="4"></feGaussianBlur></filter><filter id="bbburst-blur-4" x="-100%" y="-100%" width="400%" height="400%"><feGaussianBlur in="SourceGraphic" stdDeviation="12"></feGaussianBlur></filter><symbol id="bbburst-shape-4" viewBox="0 0 149 143"><path d="M71.647 2.781c.898-2.764 4.808-2.764 5.706 0l15.445 47.534a3 3 0 0 0 2.853 2.073h49.98c2.906 0 4.115 3.719 1.764 5.427L106.96 87.193a2.999 2.999 0 0 0-1.09 3.354l15.445 47.534c.898 2.764-2.266 5.062-4.617 3.354l-40.435-29.378a3 3 0 0 0-3.526 0l-40.435 29.378c-2.351 1.708-5.515-.59-4.617-3.354L43.13 90.547a3 3 0 0 0-1.09-3.354L1.605 57.815c-2.35-1.708-1.142-5.427 1.764-5.427h49.98a3 3 0 0 0 2.853-2.073L71.647 2.781Z"></path></symbol><symbol id="bbburst-shape-5" viewBox="0 0 145 145"><circle cx="72.5" cy="72.5" r="72.5"></circle></symbol><symbol id="bbburst-shape-6" viewBox="0 0 133 116"><path d="M59.7487 10.2513c-13.6683-13.66839-35.8291-13.66839-49.4974 0-13.66839 13.6683-13.66839 35.8291 0 49.4974l49.4974-49.4974ZM66.5 66.5 41.7513 91.2487 66.5 115.997l24.7487-24.7483L66.5 66.5Zm56.249-6.7513c13.668-13.6683 13.668-35.8291 0-49.4974-13.669-13.66839-35.8294-13.66839-49.4977 0l49.4977 49.4974Zm-112.4977 0 31.5 31.5 49.4974-49.4974-31.5-31.5-49.4974 49.4974Zm80.9974 31.5 31.5003-31.5-49.4977-49.4974-31.5 31.5 49.4974 49.4974Z"></path></symbol><symbol id="bbburst-shape-8" viewBox="0 0 87 168"><path d="m12 12 31.2546 18.0749c16.4102 9.4902 20.014 31.6325 7.4603 45.8369L36.3296 92.1884c-12.5684 14.2206-8.9394 36.3916 7.5068 45.8636L75 156" stroke-width="14" stroke-linecap="round" stroke-linejoin="round"></path></symbol><symbol id="bbburst-shape-9" viewBox="0 0 182 172"><path d="M13.5809 69.845 91 13.5967l77.419 56.2483-29.571 91.012H43.1524L13.5809 69.845Z" stroke-width="22"></path></symbol><symbol id="bbburst-shape-10" viewBox="0 0 145 145"><circle cx="72.5" cy="72.5" r="61.5" fill="none" stroke-width="22"></circle></symbol><symbol id="bbburst-shape-14" viewBox="0 0 185 109"><path d="M168 16.5C168 58.1975 134.197 92 92.5 92 50.8025 92 17 58.1975 17 16.5" stroke-width="33" stroke-linecap="round"></path></symbol></defs><use xlink:href="#bbburst-shape-8" width="18.38261743029816" opacity="0.7150356911251206" transform="matrix(0.7680486208008677,-0.6403915334277032,0.6403915334277032,0.7680486208008677,151.7300285175108,-28.69337956298415)" fill="none" stroke="#0013bb" filter="url(#bbburst-blur-1)"></use><use xlink:href="#bbburst-shape-8" width="32.13780092175872" opacity="0.29151730015944144" transform="matrix(1.1142410532513765,-0.5665393854351727,0.5665393854351727,1.1142410532513765,-159.7772879574623,10.9203882283702)" fill="none" stroke="#0013bb" filter="url(#bbburst-blur-3)"></use><use xlink:href="#bbburst-shape-9" width="10.865545731140184" opacity="0.8881986752408135" transform="matrix(0.770623133130638,-0.6372911318101947,0.6372911318101947,0.770623133130638,91.55315318421674,85.10914005980487)" fill="none" stroke="#0013bb"></use><use xlink:href="#bbburst-shape-8" width="20.26163777304084" opacity="0.4219782815007077" transform="matrix(0.9183146277431348,-0.3958512908567912,0.3958512908567912,0.9183146277431348,458.58093995428163,-91.68795353312055)" fill="none" stroke="#0013bb" filter="url(#bbburst-blur-2)"></use><use xlink:href="#bbburst-shape-9" width="6.845872367294368" opacity="0.9646714507530953" transform="matrix(0.957520141224988,-0.2883663973983083,0.2883663973983083,0.957520141224988,295.4001079555751,25.39737881783998)" fill="none" stroke="#0013bb"></use><use xlink:href="#bbburst-shape-10" width="24.615077039667543" opacity="0.43473555155260357" transform="matrix(0.9830321124300219,-0.1834335463631687,0.1834335463631687,0.9830321124300219,317.60112503976563,263.39520852226445)" fill="none" stroke="#0013bb" filter="url(#bbburst-blur-2)"></use><use xlink:href="#bbburst-shape-10" width="38.29507851375319" opacity="0.22535466842458007" transform="matrix(0.9023058253118375,0.865068897607771,-0.865068897607771,0.9023058253118375,533.3947252736758,-266.1926083842119)" fill="none" stroke="#0013bb" filter="url(#bbburst-blur-3)"></use><use xlink:href="#bbburst-shape-9" width="27.40992713963527" opacity="0.16048575054761338" transform="matrix(1.20988652683945,-0.31412512184219343,0.31412512184219343,1.20988652683945,-109.1971247775578,-169.85976952623412)" fill="none" stroke="#0013bb" filter="url(#bbburst-blur-3)"></use><use xlink:href="#bbburst-shape-4" width="19.441554038766558" opacity="0.5525064133732127" transform="matrix(0.747753929418306,0.6639759491423488,-0.6639759491423488,0.747753929418306,456.9450327100942,92.74639210339785)" fill="#0013bb" filter="url(#bbburst-blur-2)"></use><use xlink:href="#bbburst-shape-9" width="19.97591573438493" opacity="0.609358227479077" transform="matrix(0.8484891749222248,0.5292127360899417,-0.5292127360899417,0.8484891749222248,655.3144481356519,-112.70724013992805)" fill="none" stroke="#0013bb" filter="url(#bbburst-blur-1)"></use><use xlink:href="#bbburst-shape-4" width="18.84278955209764" opacity="0.6778360436300397" transform="matrix(0.9937424943578121,0.11169536654451585,-0.11169536654451585,0.9937424943578121,327.39697857514983,98.27347995261778)" fill="#0013bb" filter="url(#bbburst-blur-1)"></use><use xlink:href="#bbburst-shape-4" width="25.52346435575011" opacity="0.3970698824317527" transform="matrix(0.7844888905660045,-0.6201428711019094,0.6201428711019094,0.7844888905660045,404.809554663727,26.932784948318897)" fill="#0013bb" filter="url(#bbburst-blur-2)"></use><use xlink:href="#bbburst-shape-6" width="38.71767160583997" opacity="0.2472241739295422" transform="matrix(1.240461164575575,0.15413013715626317,-0.15413013715626317,1.240461164575575,652.5846451083518,162.65081512241767)" fill="#0013bb" filter="url(#bbburst-blur-3)"></use><use xlink:href="#bbburst-shape-5" width="14.406670433923649" opacity="0.7659603261196306" transform="matrix(0.8669897209997445,-0.49832602147668864,0.49832602147668864,0.8669897209997445,116.7318781785267,127.89737339285801)" fill="#0013bb" filter="url(#bbburst-blur-1)"></use><use xlink:href="#bbburst-shape-6" width="27.944185825740906" opacity="0.4614170366927427" transform="matrix(0.8934709876145986,-0.44912091277404775,0.44912091277404775,0.8934709876145986,163.83278671873225,-189.44128661174963)" fill="#0013bb" filter="url(#bbburst-blur-2)"></use><use xlink:href="#bbburst-shape-14" width="10.920732459870194" opacity="0.8719743521781502" transform="matrix(0.9946633429079842,-0.10317380614823612,0.10317380614823612,0.9946633429079842,410.48591157736445,-4.283835576666888)" fill="none" stroke="#0013bb"></use><use xlink:href="#bbburst-shape-8" width="34.07532602117991" opacity="0.2943697394106405" transform="matrix(1.2413063251498149,-0.14716863505197716,0.14716863505197716,1.2413063251498149,442.7386275069356,-386.8611608592593)" fill="none" stroke="#0013bb" filter="url(#bbburst-blur-3)"></use><use xlink:href="#bbburst-shape-4" width="11.88404062624564" opacity="0.8106540224692679" transform="matrix(0.9984313158814478,0.05599024439346965,-0.05599024439346965,0.9984313158814478,425.24163935844524,-84.44668640583387)" fill="#0013bb"></use><use xlink:href="#bbburst-shape-5" width="24.768953328988715" opacity="0.38932151658691505" transform="matrix(0.7524779164258555,-0.6586174802504131,0.6586174802504131,0.7524779164258555,261.0669250607534,347.17943116866275)" fill="#0013bb" filter="url(#bbburst-blur-2)"></use><use xlink:href="#bbburst-shape-8" width="19.472233213397168" opacity="0.7329235234620723" transform="matrix(0.8296290601752722,0.5583149850332648,-0.5583149850332648,0.8296290601752722,711.64636181185,134.48841928407592)" fill="none" stroke="#0013bb" filter="url(#bbburst-blur-1)"></use><use xlink:href="#bbburst-shape-14" width="26.59370036587722" opacity="0.41063855055283816" transform="matrix(0.9989314559266651,0.0462162997245897,-0.0462162997245897,0.9989314559266651,273.34222776837794,-230.26139615591995)" fill="none" stroke="#0013bb" filter="url(#bbburst-blur-2)"></use><use xlink:href="#bbburst-shape-6" width="12.118083273102542" opacity="0.7934411042880144" transform="matrix(0.9859595934465307,0.1669840713683551,-0.1669840713683551,0.9859595934465307,383.7578055120684,-47.37101511769265)" fill="#0013bb"></use><use xlink:href="#bbburst-shape-10" width="11.802401697863406" opacity="0.8252404784981731" transform="matrix(0.7518454664024888,0.6593393622786554,-0.6593393622786554,0.7518454664024888,678.5382716411189,171.6229951876429)" fill="none" stroke="#0013bb"></use><use xlink:href="#bbburst-shape-10" width="12.303237675100878" opacity="0.7055787331068871" transform="matrix(0.9080003997019765,0.41896929975960145,-0.41896929975960145,0.9080003997019765,634.7900876828163,144.926572729062)" fill="none" stroke="#0013bb" filter="url(#bbburst-blur-1)"></use><use xlink:href="#bbburst-shape-6" width="24.775526494335907" opacity="0.2978588812930699" transform="matrix(1.1194784821434896,0.5561186276485519,-0.5561186276485519,1.1194784821434896,294.99444427005955,-93.37590268048677)" fill="#0013bb" filter="url(#bbburst-blur-3)"></use><use xlink:href="#bbburst-shape-9" width="34.81460140012919" opacity="0.32644426231645807" transform="matrix(1.0744643046696876,0.6387694873666748,-0.6387694873666748,1.0744643046696876,650.7586538723089,-343.94270227050424)" fill="none" stroke="#0013bb" filter="url(#bbburst-blur-3)"></use><use xlink:href="#bbburst-shape-14" width="12.550593913078863" opacity="0.8892136905442432" transform="matrix(0.7201589596133233,-0.6938091040687314,0.6938091040687314,0.7201589596133233,124.51708696411328,165.72442185716227)" fill="none" stroke="#0013bb"></use><use xlink:href="#bbburst-shape-8" width="13.208121160963604" opacity="0.6683616080300001" transform="matrix(0.9317698914240661,-0.36304940357420246,0.36304940357420246,0.9317698914240661,347.59426522850356,-82.01175766182303)" fill="none" stroke="#0013bb" filter="url(#bbburst-blur-1)"></use><use xlink:href="#bbburst-shape-8" width="30.70246438790577" opacity="0.46540085823498945" transform="matrix(0.8658962866193384,-0.5002235708349223,0.5002235708349223,0.8658962866193384,285.5666172468484,-157.95760616525595)" fill="none" stroke="#0013bb" filter="url(#bbburst-blur-2)"></use><use xlink:href="#bbburst-shape-14" width="24.220161273303226" opacity="0.47865028347325145" transform="matrix(0.9908596463004724,-0.13489685442330654,0.13489685442330654,0.9908596463004724,568.5753449050969,-0.7382737509387312)" fill="none" stroke="#0013bb" filter="url(#bbburst-blur-2)"></use><use xlink:href="#bbburst-shape-5" width="21.64572998175798" opacity="0.4506894977849992" transform="matrix(0.9684190479220458,0.24932819259313282,-0.24932819259313282,0.9684190479220458,281.6220282580198,144.07302182081537)" fill="#0013bb" filter="url(#bbburst-blur-2)"></use><use xlink:href="#bbburst-shape-4" width="22.087015649056557" opacity="0.6355893483153825" transform="matrix(0.9819932444162222,0.18891603404926152,-0.18891603404926152,0.9819932444162222,307.12005204221674,-40.18404233987047)" fill="#0013bb" filter="url(#bbburst-blur-1)"></use><use xlink:href="#bbburst-shape-4" width="22.235707756268447" opacity="0.41604879716287946" transform="matrix(0.7389830189390022,0.6737240516114875,-0.6737240516114875,0.7389830189390022,482.4197564341194,289.4629459229157)" fill="#0013bb" filter="url(#bbburst-blur-2)"></use><use xlink:href="#bbburst-shape-10" width="42.837919900933734" opacity="0.03174238328530088" transform="matrix(1.5299225074683032,0.8496099817809936,-0.8496099817809936,1.5299225074683032,451.1497744408472,122.46736370125336)" fill="none" stroke="#0013bb" filter="url(#bbburst-blur-4)"></use><use xlink:href="#bbburst-shape-14" width="15.224635165063832" opacity="0.7475212147688258" transform="matrix(0.7484245008278344,0.6632199986132858,-0.6632199986132858,0.7484245008278344,763.3464988642769,49.33266558633255)" fill="none" stroke="#0013bb" filter="url(#bbburst-blur-1)"></use><use xlink:href="#bbburst-shape-10" width="27.8009106528679" opacity="0.40199573118183873" transform="matrix(0.9449166398174417,-0.3273110810774899,0.3273110810774899,0.9449166398174417,130.46719035251982,264.64238717030264)" fill="none" stroke="#0013bb" filter="url(#bbburst-blur-2)"></use><use xlink:href="#bbburst-shape-5" width="15.90567660698337" opacity="0.7081661745420773" transform="matrix(0.9863372402662185,0.16473872788151525,-0.16473872788151525,0.9863372402662185,588.8835788324917,-7.2129049152366065)" fill="#0013bb" filter="url(#bbburst-blur-1)"></use><use xlink:href="#bbburst-shape-9" width="9.757979193286227" opacity="0.8177706593447969" transform="matrix(0.9974310703604266,-0.07163281286989755,0.07163281286989755,0.9974310703604266,428.4132165855227,-52.43117603013877)" fill="none" stroke="#0013bb"></use><use xlink:href="#bbburst-shape-14" width="9.824749242113015" opacity="0.8662922901699037" transform="matrix(0.7961603247901726,-0.6050857271742632,0.6050857271742632,0.7961603247901726,205.56896392133456,53.41659860348335)" fill="none" stroke="#0013bb"></use><use xlink:href="#bbburst-shape-8" width="12.364920921635449" opacity="0.7476610086333182" transform="matrix(0.8370592266367904,-0.5471122838158711,0.5471122838158711,0.8370592266367904,258.8659926736846,-9.056237487867975)" fill="none" stroke="#0013bb" filter="url(#bbburst-blur-1)"></use><use xlink:href="#bbburst-shape-14" width="15.361316799163676" opacity="0.6677903253497564" transform="matrix(0.8455239325500924,0.5339375239529686,-0.5339375239529686,0.8455239325500924,744.6409072821,-0.7971702893553356)" fill="none" stroke="#0013bb" filter="url(#bbburst-blur-1)"></use><use xlink:href="#bbburst-shape-4" width="19.29432184496539" opacity="0.5852098828853314" transform="matrix(0.9746445200739602,0.22375893164251529,-0.22375893164251529,0.9746445200739602,479.48799036835914,-178.65393640020616)" fill="#0013bb" filter="url(#bbburst-blur-1)"></use><use xlink:href="#bbburst-shape-14" width="28.338166759689496" opacity="0.5662408555375918" transform="matrix(0.9064974624447818,0.4222112629729001,-0.4222112629729001,0.9064974624447818,482.31048054595044,-149.28419603959918)" fill="none" stroke="#0013bb" filter="url(#bbburst-blur-1)"></use><use xlink:href="#bbburst-shape-6" width="32.68380112903067" opacity="0.26591389232395735" transform="matrix(1.1820036345744351,-0.40665391655906263,0.40665391655906263,1.1820036345744351,532.5614998822266,-167.09530790330984)" fill="#0013bb" filter="url(#bbburst-blur-3)"></use><use xlink:href="#bbburst-shape-14" width="27.96560145210436" opacity="0.06913439037563873" transform="matrix(1.410399130619354,1.0359895232810854,-1.0359895232810854,1.410399130619354,429.4852687023042,-383.8577472371387)" fill="none" stroke="#0013bb" filter="url(#bbburst-blur-4)"></use><use xlink:href="#bbburst-shape-8" width="38.444423913682165" opacity="0.18556490135964954" transform="matrix(1.2499457710113262,-0.011643432951721898,0.011643432951721898,1.2499457710113262,524.4825979480454,233.20066019456624)" fill="none" stroke="#0013bb" filter="url(#bbburst-blur-3)"></use><use xlink:href="#bbburst-shape-6" width="10.913632538665574" opacity="0.7985413441189126" transform="matrix(0.9946369502911826,0.10342793198868312,-0.10342793198868312,0.9946369502911826,352.4277625925184,36.846841330482164)" fill="#0013bb"></use><use xlink:href="#bbburst-shape-10" width="21.070911931093946" opacity="0.6286140174699464" transform="matrix(0.9577240737131423,0.2876883706900639,-0.2876883706900639,0.9577240737131423,670.1586313080263,39.33719775549838)" fill="none" stroke="#0013bb" filter="url(#bbburst-blur-1)"></use><use xlink:href="#bbburst-shape-10" width="26.018036641246812" opacity="0.5626698112613624" transform="matrix(0.951602466692636,-0.3073316537301203,0.3073316537301203,0.951602466692636,375.9630400730383,-138.9621494287386)" fill="none" stroke="#0013bb" filter="url(#bbburst-blur-1)"></use><use xlink:href="#bbburst-shape-6" width="16.598356502429453" opacity="0.6177924910459969" transform="matrix(0.8621230666977033,-0.5066989420432486,0.5066989420432486,0.8621230666977033,325.29526776677653,-47.04730667626529)" fill="#0013bb" filter="url(#bbburst-blur-1)"></use><use xlink:href="#bbburst-shape-14" width="29.61295423690093" opacity="0.022788863865518927" transform="matrix(1.7348453591406447,0.2298077019339589,-0.2298077019339589,1.7348453591406447,209.1014611739734,-654.0096161740253)" fill="none" stroke="#0013bb" filter="url(#bbburst-blur-4)"></use><use xlink:href="#bbburst-shape-10" width="28.462448582281215" opacity="0.38650882411189624" transform="matrix(0.907634122830524,-0.41976219347824223,0.41976219347824223,0.907634122830524,487.47368915080625,107.98043093230439)" fill="none" stroke="#0013bb" filter="url(#bbburst-blur-2)"></use><use xlink:href="#bbburst-shape-9" width="20.394316416402233" opacity="0.538533911545352" transform="matrix(0.8411075910814455,-0.5408678398880523,0.5408678398880523,0.8411075910814455,336.81719064129607,199.10382381458192)" fill="none" stroke="#0013bb" filter="url(#bbburst-blur-2)"></use><use xlink:href="#bbburst-shape-10" width="26.95433110152868" opacity="0.3376160547779935" transform="matrix(0.9578283845259623,0.2873408877907655,-0.2873408877907655,0.9578283845259623,440.5230049586551,304.6544191827624)" fill="none" stroke="#0013bb" filter="url(#bbburst-blur-2)"></use><use xlink:href="#bbburst-shape-6" width="22.400490718993197" opacity="0.5021559448874857" transform="matrix(0.7776288449744421,-0.6287236113458083,0.6287236113458083,0.7776288449744421,-73.64716706443278,164.02880696933886)" fill="#0013bb" filter="url(#bbburst-blur-2)"></use><use xlink:href="#bbburst-shape-6" width="17.812545415858864" opacity="0.5317984647620279" transform="matrix(0.7932051761747851,0.6089544716064806,-0.6089544716064806,0.7932051761747851,435.08156926385675,15.534888435982396)" fill="#0013bb" filter="url(#bbburst-blur-2)"></use><use xlink:href="#bbburst-shape-9" width="34.203165312748375" opacity="0.1314067365260978" transform="matrix(1.1901808191529786,-0.3820597043923173,0.3820597043923173,1.1901808191529786,81.2879655295776,-432.6109575084556)" fill="none" stroke="#0013bb" filter="url(#bbburst-blur-3)"></use><use xlink:href="#bbburst-shape-8" width="16.033695227351803" opacity="0.720141842449636" transform="matrix(0.826324748755091,0.5631939360423155,-0.5631939360423155,0.826324748755091,529.2715682790349,-23.762861614256906)" fill="none" stroke="#0013bb" filter="url(#bbburst-blur-1)"></use><use xlink:href="#bbburst-shape-10" width="7.47001862739568" opacity="0.9453788032854842" transform="matrix(0.7306470837940608,0.6827553287549168,-0.6827553287549168,0.7306470837940608,674.1342249987872,129.48115058309054)" fill="none" stroke="#0013bb"></use><use xlink:href="#bbburst-shape-5" width="10.551061539716072" opacity="0.8439905913460202" transform="matrix(0.996287398160377,0.08608960603247265,-0.08608960603247265,0.996287398160377,359.5751787873731,10.186209546435464)" fill="#0013bb"></use><use xlink:href="#bbburst-shape-6" width="12.367832163028273" opacity="0.7744981554109446" transform="matrix(0.9528700692853925,0.30337869249512445,-0.30337869249512445,0.9528700692853925,414.0804076110619,12.534334891098467)" fill="#0013bb" filter="url(#bbburst-blur-1)"></use><use xlink:href="#bbburst-shape-9" width="10.723696291575944" opacity="0.9292110702956583" transform="matrix(0.9613953285625013,0.27517089638659115,-0.27517089638659115,0.9613953285625013,474.04872373837526,21.69947619504103)" fill="none" stroke="#0013bb"></use><use xlink:href="#bbburst-shape-9" width="34.813329397578954" opacity="0.08163696780973584" transform="matrix(1.356562640940821,1.105548642622144,-1.105548642622144,1.356562640940821,1015.2452782845435,-525.8102852852335)" fill="none" stroke="#0013bb" filter="url(#bbburst-blur-4)"></use><use xlink:href="#bbburst-shape-9" width="12.85058803146969" opacity="0.7065436355401753" transform="matrix(0.7097503221771072,-0.7044533200784083,0.7044533200784083,0.7097503221771072,-4.719134834386352,179.21487916883785)" fill="none" stroke="#0013bb" filter="url(#bbburst-blur-1)"></use><use xlink:href="#bbburst-shape-8" width="43.54100861599843" opacity="-0.08345392095181792" transform="matrix(1.736268609301629,-0.2187951470069364,0.2187951470069364,1.736268609301629,607.331500950464,-646.190239917784)" fill="none" stroke="#0013bb" filter="url(#bbburst-blur-4)"></use><use xlink:href="#bbburst-shape-14" width="17.033104818744" opacity="0.7145816484302963" transform="matrix(0.9844678113555574,0.1755651685409117,-0.1755651685409117,0.9844678113555574,454.95140165134256,132.9938343523978)" fill="none" stroke="#0013bb" filter="url(#bbburst-blur-1)"></use><use xlink:href="#bbburst-shape-14" width="32.90119717199232" opacity="0.3490016929754066" transform="matrix(0.9224472981605975,-0.3861230142276084,0.3861230142276084,0.9224472981605975,412.5724206323912,-191.9981760711066)" fill="none" stroke="#0013bb" filter="url(#bbburst-blur-2)"></use><use xlink:href="#bbburst-shape-10" width="24.459084878860708" opacity="0.3994702509245105" transform="matrix(0.7635308151705514,-0.6457713947559099,0.6457713947559099,0.7635308151705514,366.34714186909457,237.673567883366)" fill="none" stroke="#0013bb" filter="url(#bbburst-blur-2)"></use><use xlink:href="#bbburst-shape-14" width="8.093369952616719" opacity="0.9005226293353119" transform="matrix(0.9983565904107827,-0.05730722802017814,0.05730722802017814,0.9983565904107827,349.1711092447929,38.77200895202765)" fill="none" stroke="#0013bb"></use><use xlink:href="#bbburst-shape-9" width="8.907451699513963" opacity="0.9089535009461552" transform="matrix(0.8919930142725879,0.45204918149345513,-0.45204918149345513,0.8919930142725879,557.480964686632,5.045465152656675)" fill="none" stroke="#0013bb"></use><use xlink:href="#bbburst-shape-8" width="26.490472889684845" opacity="0.2419083963525327" transform="matrix(1.0667163617021045,-0.6516258156925835,0.6516258156925835,1.0667163617021045,443.60449318040855,104.45613452807453)" fill="none" stroke="#0013bb" filter="url(#bbburst-blur-3)"></use><use xlink:href="#bbburst-shape-10" width="16.41609586048954" opacity="0.6510495678294685" transform="matrix(0.9390364406562363,-0.3438176306120251,0.3438176306120251,0.9390364406562363,313.05267387026686,173.0165413094751)" fill="none" stroke="#0013bb" filter="url(#bbburst-blur-1)"></use><use xlink:href="#bbburst-shape-14" width="10.232949521966473" opacity="0.8731079093076866" transform="matrix(0.8697748766279632,0.4934487450453304,-0.4934487450453304,0.8697748766279632,638.7149964629708,83.689291667953)" fill="none" stroke="#0013bb"></use><use xlink:href="#bbburst-shape-10" width="8.266545971251405" opacity="0.8764959392469264" transform="matrix(0.7741349718270397,-0.63302057264701,0.63302057264701,0.7741349718270397,173.3062379401727,45.99596852136892)" fill="none" stroke="#0013bb"></use><use xlink:href="#bbburst-shape-9" width="24.625590562050906" opacity="0.41309494280640446" transform="matrix(0.9012939905485118,0.43320796691789865,-0.43320796691789865,0.9012939905485118,746.9330281567832,222.80466371198207)" fill="none" stroke="#0013bb" filter="url(#bbburst-blur-2)"></use><use xlink:href="#bbburst-shape-6" width="9.51457312988198" opacity="0.8427690672913204" transform="matrix(0.9472504562883557,0.3204942636951589,-0.3204942636951589,0.9472504562883557,474.2449720400225,70.18328652185778)" fill="#0013bb"></use><use xlink:href="#bbburst-shape-9" width="13.377014341355583" opacity="0.7273990281109435" transform="matrix(0.770727825516554,0.6371645148425359,-0.6371645148425359,0.770727825516554,529.4160308902409,111.11334710043707)" fill="none" stroke="#0013bb" filter="url(#bbburst-blur-1)"></use><use xlink:href="#bbburst-shape-9" width="7.793728653617433" opacity="0.9313661008048341" transform="matrix(0.7290408805270383,0.6844701560479907,-0.6844701560479907,0.7290408805270383,644.3643762047532,90.01456200463423)" fill="none" stroke="#0013bb"></use><use xlink:href="#bbburst-shape-14" width="28.92777044793123" opacity="0.1496036778546439" transform="matrix(1.2493023185132843,0.041757837076793744,-0.041757837076793744,1.2493023185132843,697.4685238698969,-339.3143080523619)" fill="none" stroke="#0013bb" filter="url(#bbburst-blur-3)"></use><use xlink:href="#bbburst-shape-10" width="17.462496897670697" opacity="0.6437432248136026" transform="matrix(0.9999989113598281,-0.0014755606252362058,0.0014755606252362058,0.9999989113598281,409.7777946686844,159.18710288848)" fill="none" stroke="#0013bb" filter="url(#bbburst-blur-1)"></use><use xlink:href="#bbburst-shape-5" width="30.27642869633126" opacity="0.16804689486440916" transform="matrix(1.0907325476966123,-0.6105755558448581,0.6105755558448581,1.0907325476966123,506.6898870867762,44.73721011105147)" fill="#0013bb" filter="url(#bbburst-blur-3)"></use><use xlink:href="#bbburst-shape-8" width="17.34785020849523" opacity="0.7513371883834226" transform="matrix(0.9113592521640408,-0.41161184809842416,0.41161184809842416,0.9113592521640408,253.94636752683567,147.7426225665073)" fill="none" stroke="#0013bb" filter="url(#bbburst-blur-1)"></use><use xlink:href="#bbburst-shape-10" width="24.025066341500096" opacity="0.4145597048305075" transform="matrix(0.7895119002427593,0.6137352518595189,-0.6137352518595189,0.7895119002427593,380.40648665809056,13.012546456008522)" fill="none" stroke="#0013bb" filter="url(#bbburst-blur-2)"></use><use xlink:href="#bbburst-shape-9" width="8.221713983178" opacity="0.8585734514430867" transform="matrix(0.8980663003357141,-0.43986011435605626,0.43986011435605626,0.8980663003357141,203.26185050437826,103.83966574045348)" fill="none" stroke="#0013bb"></use><use xlink:href="#bbburst-shape-14" width="44.18098431914818" opacity="0.15477705396306596" transform="matrix(1.0132467986707363,-0.7320047301647065,0.7320047301647065,1.0132467986707363,-273.0529501902783,139.63967009788144)" fill="none" stroke="#0013bb" filter="url(#bbburst-blur-3)"></use><use xlink:href="#bbburst-shape-9" width="7.590251617778292" opacity="0.981377872351051" transform="matrix(0.9837343623698702,-0.17962935253667417,0.17962935253667417,0.9837343623698702,316.1372486662698,8.500283731230468)" fill="none" stroke="#0013bb"></use><use xlink:href="#bbburst-shape-4" width="14.474750004611764" opacity="0.8008519517100249" transform="matrix(0.9364559096238976,0.3507853037549872,-0.3507853037549872,0.9364559096238976,522.7436047165555,111.85603696686701)" fill="#0013bb"></use><use xlink:href="#bbburst-shape-8" width="14.405960423338362" opacity="0.7160728781478901" transform="matrix(0.9872003027817443,0.15948530398639355,-0.15948530398639355,0.9872003027817443,579.5517857329589,39.011058656830016)" fill="none" stroke="#0013bb" filter="url(#bbburst-blur-1)"></use><use xlink:href="#bbburst-shape-6" width="6.820322016093746" opacity="0.9226074423956537" transform="matrix(0.9945084892784952,-0.10465593510644824,0.10465593510644824,0.9945084892784952,374.37632198351855,-26.213663790398073)" fill="#0013bb"></use><use xlink:href="#bbburst-shape-10" width="14.078309330690306" opacity="0.7811130677728454" transform="matrix(0.9989370614121541,0.046094981692698815,-0.046094981692698815,0.9989370614121541,467.0770452362407,81.35861294363337)" fill="none" stroke="#0013bb"></use><use xlink:href="#bbburst-shape-14" width="25.244416876690366" opacity="0.17138955245915521" transform="matrix(1.0588674618003522,0.6643039201604033,-0.6643039201604033,1.0588674618003522,280.08114418971985,-10.364389834606186)" fill="none" stroke="#0013bb" filter="url(#bbburst-blur-3)"></use><use xlink:href="#bbburst-shape-14" width="17.578937251297504" opacity="0.6966855666152926" transform="matrix(0.8236049036962099,-0.5671639644825444,0.5671639644825444,0.8236049036962099,102.78926676672259,-45.45735749171757)" fill="none" stroke="#0013bb" filter="url(#bbburst-blur-1)"></use><use xlink:href="#bbburst-shape-5" width="38.19156409902701" opacity="0.15478321875656076" transform="matrix(1.2202614030553498,-0.27103894224518493,0.27103894224518493,1.2202614030553498,506.7549245214162,-379.2313850503373)" fill="#0013bb" filter="url(#bbburst-blur-3)"></use><use xlink:href="#bbburst-shape-4" width="26.03535150589716" opacity="0.4748704847346078" transform="matrix(0.9856360895809043,-0.16888309245055722,0.16888309245055722,0.9856360895809043,155.619957809151,-162.16669791877962)" fill="#0013bb" filter="url(#bbburst-blur-2)"></use><use xlink:href="#bbburst-shape-14" width="31.559746785375914" opacity="0.12237785281856906" transform="matrix(0.9469723674151221,-0.8159309623688753,0.8159309623688753,0.9469723674151221,421.16848769630934,-122.71807679228709)" fill="none" stroke="#0013bb" filter="url(#bbburst-blur-3)"></use><use xlink:href="#bbburst-shape-9" width="8.424966830822747" opacity="0.8802620788780837" transform="matrix(0.7275925548540209,-0.6860095291765258,0.6860095291765258,0.7275925548540209,74.3644508671141,136.0393600831552)" fill="none" stroke="#0013bb"></use><use xlink:href="#bbburst-shape-5" width="12.826395319740946" opacity="0.7944498426444597" transform="matrix(0.9751609509558016,0.2214974485879618,-0.2214974485879618,0.9751609509558016,430.45668888912434,-68.05770119620058)" fill="#0013bb"></use><use xlink:href="#bbburst-shape-9" width="26.301145019122792" opacity="0.5526441361062417" transform="matrix(0.7640464668703649,0.6451612174200433,-0.6451612174200433,0.7640464668703649,478.4230815293344,-22.519898956605346)" fill="none" stroke="#0013bb" filter="url(#bbburst-blur-2)"></use><use xlink:href="#bbburst-shape-6" width="35.26438174159179" opacity="0.30833548933471056" transform="matrix(0.9214120043959457,0.8446892435416977,-0.8446892435416977,0.9214120043959457,632.0765849901782,-281.5459920947145)" fill="#0013bb" filter="url(#bbburst-blur-3)"></use><use xlink:href="#bbburst-shape-8" width="38.74587942709723" opacity="0.085273666401813" transform="matrix(1.3063733131753186,1.1644263680556795,-1.1644263680556795,1.3063733131753186,1144.042216407022,132.87766436757522)" fill="none" stroke="#0013bb" filter="url(#bbburst-blur-4)"></use><use xlink:href="#bbburst-shape-14" width="9.915067580154094" opacity="0.8168458215483716" transform="matrix(0.9211620081322766,-0.3891793349777345,0.3891793349777345,0.9211620081322766,321.849224515673,26.03192522277442)" fill="none" stroke="#0013bb"></use><use xlink:href="#bbburst-shape-6" width="24.204185115923625" opacity="0.17556293894227482" transform="matrix(0.938061280234586,0.8261604169437371,-0.8261604169437371,0.938061280234586,664.5762861189005,381.7440246443258)" fill="#0013bb" filter="url(#bbburst-blur-3)"></use><use xlink:href="#bbburst-shape-14" width="30.0495300276297" opacity="0.2730612229002569" transform="matrix(0.9915036177645233,-0.7611968050115963,0.7611968050115963,0.9915036177645233,-191.86788780621785,195.8184757290877)" fill="none" stroke="#0013bb" filter="url(#bbburst-blur-3)"></use><use xlink:href="#bbburst-shape-8" width="33.87138638781232" opacity="0.36048039269698773" transform="matrix(0.9876617385684299,-0.15660233129805715,0.15660233129805715,0.9876617385684299,396.10392656858636,285.29877489711726)" fill="none" stroke="#0013bb" filter="url(#bbburst-blur-2)"></use><use xlink:href="#bbburst-shape-8" width="28.134262571103214" opacity="0.06624832852222207" transform="matrix(1.7455143711577785,-0.12521813000386728,0.12521813000386728,1.7455143711577785,691.1623141904636,-89.69415825972669)" fill="none" stroke="#0013bb" filter="url(#bbburst-blur-4)"></use><use xlink:href="#bbburst-shape-8" width="13.408710700830238" opacity="0.7744911102627585" transform="matrix(0.9852213851081996,-0.1712857913706815,0.1712857913706815,0.9852213851081996,302.40581762971544,-91.89917562917276)" fill="none" stroke="#0013bb" filter="url(#bbburst-blur-1)"></use><use xlink:href="#bbburst-shape-8" width="6.945989196831126" opacity="0.9225620175252637" transform="matrix(0.7808952086513669,0.6246620471145483,-0.6246620471145483,0.7808952086513669,681.98462656373,84.44201098275096)" fill="none" stroke="#0013bb"></use><use xlink:href="#bbburst-shape-10" width="22.35417986335574" opacity="0.6413894693061187" transform="matrix(0.8927406704177603,0.45057085500734284,-0.45057085500734284,0.8927406704177603,683.0356580657603,153.28525338538407)" fill="none" stroke="#0013bb" filter="url(#bbburst-blur-1)"></use><use xlink:href="#bbburst-shape-9" width="26.43131351910058" opacity="0.4946069368739028" transform="matrix(0.9868152195000583,0.16185092697618914,-0.16185092697618914,0.9868152195000583,391.51202121962945,222.2695181395443)" fill="none" stroke="#0013bb" filter="url(#bbburst-blur-2)"></use><use xlink:href="#bbburst-shape-8" width="18.584226789891453" opacity="0.6240722871362765" transform="matrix(0.9388134583785901,-0.3444260303276037,0.3444260303276037,0.9388134583785901,88.92227232681981,66.7879323156181)" fill="none" stroke="#0013bb" filter="url(#bbburst-blur-1)"></use><use xlink:href="#bbburst-shape-4" width="11.468695449888866" opacity="0.8510291684306922" transform="matrix(0.8575687647309702,0.514369335942373,-0.514369335942373,0.8575687647309702,665.6450450027214,71.12786215757069)" fill="#0013bb"></use><use xlink:href="#bbburst-shape-14" width="21.08730739523692" opacity="0.6131832812412663" transform="matrix(0.9014608687514049,0.43286060355495787,-0.43286060355495787,0.9014608687514049,736.0616530107513,11.08944588261852)" fill="none" stroke="#0013bb" filter="url(#bbburst-blur-1)"></use><use xlink:href="#bbburst-shape-6" width="10.266859670878667" opacity="0.7900015631008266" transform="matrix(0.9965966275043682,0.0824327728935498,-0.0824327728935498,0.9965966275043682,516.4602846047964,33.79551659226473)" fill="#0013bb"></use><use xlink:href="#bbburst-shape-5" width="26.025483490379724" opacity="0.34788006810472105" transform="matrix(0.9030462568380572,-0.4295433133116772,0.4295433133116772,0.9030462568380572,-58.50665667403334,146.958605589527)" fill="#0013bb" filter="url(#bbburst-blur-2)"></use><use xlink:href="#bbburst-shape-8" width="23.286202900025764" opacity="0.5996219275742767" transform="matrix(0.9541019030770089,-0.2994821506280966,0.2994821506280966,0.9541019030770089,156.26818223914623,-118.61955230091547)" fill="none" stroke="#0013bb" filter="url(#bbburst-blur-1)"></use><use xlink:href="#bbburst-shape-9" width="29.341862362210804" opacity="0.5223173114933426" transform="matrix(0.7901529357763409,0.6129097307793617,-0.6129097307793617,0.7901529357763409,694.1781508569377,281.06254884258385)" fill="none" stroke="#0013bb" filter="url(#bbburst-blur-2)"></use><use xlink:href="#bbburst-shape-5" width="6.218597327068954" opacity="0.9090759936210352" transform="matrix(0.7700651223958995,0.6379652868843166,-0.6379652868843166,0.7700651223958995,690.8770740870295,104.94395785222952)" fill="#0013bb"></use><use xlink:href="#bbburst-shape-4" width="44.829074747694825" opacity="-0.1014159855471104" transform="matrix(1.6803453755474649,0.4888142989686874,-0.4888142989686874,1.6803453755474649,203.16153568049242,63.179266385966685)" fill="#0013bb" filter="url(#bbburst-blur-4)"></use><use xlink:href="#bbburst-shape-14" width="21.01266689064403" opacity="0.67319126550201" transform="matrix(0.9614910207166918,0.2748363459973482,-0.2748363459973482,0.9614910207166918,421.1761992126176,136.8098961452282)" fill="none" stroke="#0013bb" filter="url(#bbburst-blur-1)"></use><use xlink:href="#bbburst-shape-4" width="13.518652415526208" opacity="0.7669685719958844" transform="matrix(0.9540943130228594,-0.2995063302460201,0.2995063302460201,0.9540943130228594,315.19878381678365,-75.92733696707586)" fill="#0013bb" filter="url(#bbburst-blur-1)"></use><use xlink:href="#bbburst-shape-4" width="32.52320810214056" opacity="0.1092503167204254" transform="matrix(1.5994521882480868,0.7101075253145871,-0.7101075253145871,1.5994521882480868,497.25571959491145,115.90802501702535)" fill="#0013bb" filter="url(#bbburst-blur-4)"></use><use xlink:href="#bbburst-shape-10" width="24.83395501558946" opacity="0.5505552550726565" transform="matrix(0.8511690559040055,0.52489164431479,-0.52489164431479,0.8511690559040055,497.42679390413446,227.6833200089141)" fill="none" stroke="#0013bb" filter="url(#bbburst-blur-2)"></use><use xlink:href="#bbburst-shape-10" width="31.61812748064766" opacity="0.24756467720489317" transform="matrix(1.1774360796482721,-0.4196954590444214,0.4196954590444214,1.1774360796482721,490.8629597032347,129.88008063370955)" fill="none" stroke="#0013bb" filter="url(#bbburst-blur-3)"></use><use xlink:href="#bbburst-shape-8" width="30.385026182351254" opacity="0.041637317906774496" transform="matrix(1.735031805909788,-0.2283957803494172,0.2283957803494172,1.735031805909788,521.4526625873289,68.3240801094372)" fill="none" stroke="#0013bb" filter="url(#bbburst-blur-4)"></use><use xlink:href="#bbburst-shape-10" width="17.370044426396554" opacity="0.5637885738098679" transform="matrix(0.9978085517213376,-0.06616716792916742,0.06616716792916742,0.9978085517213376,225.1476858876557,139.3289036570813)" fill="none" stroke="#0013bb" filter="url(#bbburst-blur-1)"></use><use xlink:href="#bbburst-shape-14" width="29.380572607756626" opacity="-0.0051618115960012645" transform="matrix(1.356419386762318,-1.1057243993036139,1.1057243993036139,1.356419386762318,303.6994372587294,-392.2290671139266)" fill="none" stroke="#0013bb" filter="url(#bbburst-blur-4)"></use><use xlink:href="#bbburst-shape-14" width="27.606920095696047" opacity="0.4134018898212243" transform="matrix(0.9983013434442919,0.05826171708182005,-0.05826171708182005,0.9983013434442919,180.9485634176059,-132.1241149565788)" fill="none" stroke="#0013bb" filter="url(#bbburst-blur-2)"></use><use xlink:href="#bbburst-shape-8" width="11.43434927216227" opacity="0.8138732387044918" transform="matrix(0.8286511973169779,0.5597653018767231,-0.5597653018767231,0.8286511973169779,685.4821720235122,116.50323007467563)" fill="none" stroke="#0013bb"></use><use xlink:href="#bbburst-shape-5" width="10.678676791061022" opacity="0.8223187853588323" transform="matrix(0.8267453488792282,-0.5625763309156929,0.5625763309156929,0.8267453488792282,210.58072041343456,3.088560463868987)" fill="#0013bb"></use><use xlink:href="#bbburst-shape-5" width="8.391527652795553" opacity="0.9144488452159942" transform="matrix(0.7071482006188704,0.707065359327901,-0.707065359327901,0.7071482006188704,702.3122338769282,145.44631198636887)" fill="#0013bb"></use><use xlink:href="#bbburst-shape-5" width="30.23304338788731" opacity="-0.1006243977499428" transform="matrix(1.728225160941005,-0.275205001935715,0.275205001935715,1.728225160941005,616.8990528596944,60.17334577536349)" fill="#0013bb" filter="url(#bbburst-blur-4)"></use><use xlink:href="#bbburst-shape-14" width="7.638759801302225" opacity="0.9620976988369767" transform="matrix(0.9781023385850105,-0.20812451862895312,0.20812451862895312,0.9781023385850105,310.5782257102689,-7.316778096824976)" fill="none" stroke="#0013bb"></use><use xlink:href="#bbburst-shape-8" width="28.472091279597258" opacity="0.31160927433479446" transform="matrix(1.1819634681003706,-0.4067706480022181,0.4067706480022181,1.1819634681003706,-7.308657705532255,-276.9472158286016)" fill="none" stroke="#0013bb" filter="url(#bbburst-blur-3)"></use><use xlink:href="#bbburst-shape-9" width="26.323564191415997" opacity="0.4592378850859631" transform="matrix(0.9772572129993139,0.21205739704337956,-0.21205739704337956,0.9772572129993139,508.96896071435,-234.3854359979834)" fill="none" stroke="#0013bb" filter="url(#bbburst-blur-2)"></use><use xlink:href="#bbburst-shape-9" width="15.845599806873377" opacity="0.657369251249794" transform="matrix(0.9911459476387202,0.1327769199798796,-0.1327769199798796,0.9911459476387202,316.97457480357644,-83.12848072593141)" fill="none" stroke="#0013bb" filter="url(#bbburst-blur-1)"></use><use xlink:href="#bbburst-shape-9" width="24.20375588636214" opacity="0.630653708520605" transform="matrix(0.7478052504877505,0.6639181480747102,-0.6639181480747102,0.7478052504877505,613.0246108049521,253.10613463525897)" fill="none" stroke="#0013bb" filter="url(#bbburst-blur-1)"></use><use xlink:href="#bbburst-shape-10" width="26.235648356603864" opacity="0.25211393312258346" transform="matrix(1.2352686025185462,0.19134126484341624,-0.19134126484341624,1.2352686025185462,318.5410579643631,208.60419804650718)" fill="none" stroke="#0013bb" filter="url(#bbburst-blur-3)"></use><use xlink:href="#bbburst-shape-6" width="25.515607686333798" opacity="0.4301585411155193" transform="matrix(0.8325827982981316,-0.5539006083929251,0.5539006083929251,0.8325827982981316,-88.06784282478984,90.70987009828701)" fill="#0013bb" filter="url(#bbburst-blur-2)"></use><use xlink:href="#bbburst-shape-9" width="6.144015442604086" opacity="0.9571135782987146" transform="matrix(0.8859858641031181,-0.46371224763796254,0.46371224763796254,0.8859858641031181,228.13581046146797,36.7590921346536)" fill="none" stroke="#0013bb"></use><use xlink:href="#bbburst-shape-6" width="21.873905899065484" opacity="0.5273098703008038" transform="matrix(0.8761950004864812,-0.48195676271061405,0.48195676271061405,0.8761950004864812,392.58096667167524,139.89130202864806)" fill="#0013bb" filter="url(#bbburst-blur-2)"></use><use xlink:href="#bbburst-shape-6" width="22.40389350124049" opacity="0.5948223771421666" transform="matrix(0.8779131708700505,-0.47881986635152624,0.47881986635152624,0.8779131708700505,39.961610350580656,144.00991233687972)" fill="#0013bb" filter="url(#bbburst-blur-1)"></use><use xlink:href="#bbburst-shape-10" width="8.738431022185846" opacity="0.8103755456402316" transform="matrix(0.8279224555829263,-0.5608425871325549,0.5608425871325549,0.8279224555829263,251.1549864051303,39.29577040893304)" fill="none" stroke="#0013bb"></use><use xlink:href="#bbburst-shape-8" width="22.12097400039839" opacity="0.5216971641910232" transform="matrix(0.9807156230966545,0.1954401867941717,-0.1954401867941717,0.9807156230966545,679.0524143964872,44.27927083842587)" fill="none" stroke="#0013bb" filter="url(#bbburst-blur-2)"></use><use xlink:href="#bbburst-shape-6" width="30.523328182034582" opacity="0.2952399292511111" transform="matrix(1.1042193076578686,-0.585832502167281,0.585832502167281,1.1042193076578686,409.4817077269096,-213.3896747633391)" fill="#0013bb" filter="url(#bbburst-blur-3)"></use><use xlink:href="#bbburst-shape-9" width="13.036889720915866" opacity="0.8635203981877683" transform="matrix(0.8619810094780653,0.5069405678175455,-0.5069405678175455,0.8619810094780653,550.8059866964322,11.586692829945946)" fill="none" stroke="#0013bb"></use><use xlink:href="#bbburst-shape-10" width="30.17254699094778" opacity="0.24928965523162383" transform="matrix(1.2325225278663976,-0.2082983876601667,0.2082983876601667,1.2325225278663976,83.8752756716662,171.3530129117425)" fill="none" stroke="#0013bb" filter="url(#bbburst-blur-3)"></use><use xlink:href="#bbburst-shape-6" width="10.857529082985266" opacity="0.8704236741200096" transform="matrix(0.8722683770821431,-0.4890274821955144,0.4890274821955144,0.8722683770821431,205.11393829391537,-4.305568343514608)" fill="#0013bb"></use><use xlink:href="#bbburst-shape-8" width="14.93080689236868" opacity="0.692726208595017" transform="matrix(0.9488650958263435,0.31568184921288095,-0.31568184921288095,0.9488650958263435,583.3040766955147,-104.41292099799563)" fill="none" stroke="#0013bb" filter="url(#bbburst-blur-1)"></use><use xlink:href="#bbburst-shape-9" width="16.464602104341893" opacity="0.7321752703167154" transform="matrix(0.9999321513802473,0.011648718215763415,-0.011648718215763415,0.9999321513802473,356.54850527789824,113.55191037402165)" fill="none" stroke="#0013bb" filter="url(#bbburst-blur-1)"></use><use xlink:href="#bbburst-shape-14" width="30.116501804028598" opacity="0.25576602300046236" transform="matrix(0.9697292900334877,-0.7887490754676976,0.7887490754676976,0.9697292900334877,87.98555306513651,358.4431572412571)" fill="none" stroke="#0013bb" filter="url(#bbburst-blur-3)"></use><use xlink:href="#bbburst-shape-6" width="18.05306379283464" opacity="0.7328675951792567" transform="matrix(0.9301460161153853,-0.36718985376052743,0.36718985376052743,0.9301460161153853,132.159285850379,-10.917226192583882)" fill="#0013bb" filter="url(#bbburst-blur-1)"></use><use xlink:href="#bbburst-shape-8" width="25.72227089897454" opacity="0.1845848836661248" transform="matrix(0.9734266858468466,0.7841814122262938,-0.7841814122262938,0.9734266858468466,666.8334665182655,-364.784459428435)" fill="none" stroke="#0013bb" filter="url(#bbburst-blur-3)"></use><use xlink:href="#bbburst-shape-9" width="32.569822333846155" opacity="0.2585203656171515" transform="matrix(1.0244240390048205,0.7162788481513677,-0.7162788481513677,1.0244240390048205,369.52822135618635,-166.77250973367052)" fill="none" stroke="#0013bb" filter="url(#bbburst-blur-3)"></use><use xlink:href="#bbburst-shape-6" width="17.38376264798999" opacity="0.6730636591422676" transform="matrix(0.9967379476113897,-0.08070603317865797,0.08070603317865797,0.9967379476113897,332.1923431145008,-142.6418281953083)" fill="#0013bb" filter="url(#bbburst-blur-1)"></use><use xlink:href="#bbburst-shape-6" width="23.19957915827359" opacity="0.17818901057909597" transform="matrix(1.2059346942372589,-0.3289703835224215,0.3289703835224215,1.2059346942372589,622.4016079137372,-115.36899564785517)" fill="#0013bb" filter="url(#bbburst-blur-3)"></use><use xlink:href="#bbburst-shape-8" width="9.137980751777668" opacity="0.8523751644485893" transform="matrix(0.777266618195817,-0.6291713631741659,0.6291713631741659,0.777266618195817,180.7785180833761,147.80007581781052)" fill="none" stroke="#0013bb"></use><use xlink:href="#bbburst-shape-10" width="13.169930152625769" opacity="0.7702896793988789" transform="matrix(0.9891633584593297,-0.14681910734458142,0.14681910734458142,0.9891633584593297,438.07315754879744,8.680777492760058)" fill="none" stroke="#0013bb" filter="url(#bbburst-blur-1)"></use><use xlink:href="#bbburst-shape-14" width="16.865516486409884" opacity="0.5625532272029454" transform="matrix(0.8367783377907858,0.5475417914680939,-0.5475417914680939,0.8367783377907858,607.8077676972591,257.4979636556859)" fill="none" stroke="#0013bb" filter="url(#bbburst-blur-1)"></use><use xlink:href="#bbburst-shape-8" width="13.540847696737847" opacity="0.8260995032956826" transform="matrix(0.9999897572136247,-0.004526087475500809,0.004526087475500809,0.9999897572136247,316.17185842538396,-21.4527533670244)" fill="none" stroke="#0013bb"></use><use xlink:href="#bbburst-shape-8" width="34.058490063263356" opacity="0.04638326413236249" transform="matrix(1.743416426452058,0.15165475257022407,-0.15165475257022407,1.743416426452058,67.09605893743453,-72.47576441776505)" fill="none" stroke="#0013bb" filter="url(#bbburst-blur-4)"></use><use xlink:href="#bbburst-shape-9" width="24.82244501675896" opacity="0.15982729611288093" transform="matrix(0.9554812978674494,-0.8059500539273724,0.8059500539273724,0.9554812978674494,150.35711006078805,396.1113607049552)" fill="none" stroke="#0013bb" filter="url(#bbburst-blur-3)"></use><use xlink:href="#bbburst-shape-9" width="41.57257223315024" opacity="0.11534694203227291" transform="matrix(1.131299789166185,-0.5316585248376497,0.5316585248376497,1.131299789166185,-132.73907555962552,223.9569214438432)" fill="none" stroke="#0013bb" filter="url(#bbburst-blur-3)"></use><use xlink:href="#bbburst-shape-5" width="28.89122251773031" opacity="0.4813761914698028" transform="matrix(0.753228050048124,-0.6577594580245129,0.6577594580245129,0.753228050048124,295.10352475821423,-52.648928691866786)" fill="#0013bb" filter="url(#bbburst-blur-2)"></use><use xlink:href="#bbburst-shape-6" width="8.132174460122465" opacity="0.9176558434009212" transform="matrix(0.8868904097730441,-0.46197987083053943,0.46197987083053943,0.8868904097730441,213.782230517772,10.131696690893648)" fill="#0013bb"></use><use xlink:href="#bbburst-shape-8" width="40.71111929641958" opacity="-0.09485919386139319" transform="matrix(1.2623943053495672,-1.211965600923138,1.211965600923138,1.2623943053495672,-467.1741515420291,-420.1573592221503)" fill="none" stroke="#0013bb" filter="url(#bbburst-blur-4)"></use><use xlink:href="#bbburst-shape-10" width="7.907589278440074" opacity="0.9430889499226466" transform="matrix(0.9330882091345558,-0.35964759692519477,0.35964759692519477,0.9330882091345558,239.07737129357594,50.026960483732125)" fill="none" stroke="#0013bb"></use><use xlink:href="#bbburst-shape-10" width="10.910064197551225" opacity="0.852191433258387" transform="matrix(0.8107692179525159,0.585365932746915,-0.585365932746915,0.8107692179525159,607.3271146949985,9.869319198150606)" fill="none" stroke="#0013bb"></use><use xlink:href="#bbburst-shape-5" width="17.605180567802993" opacity="0.5547962611077861" transform="matrix(0.7152567204552971,0.6988618059699163,-0.6988618059699163,0.7152567204552971,850.8779514461223,15.092369891175565)" fill="#0013bb" filter="url(#bbburst-blur-2)"></use><use xlink:href="#bbburst-shape-10" width="6.420549231488559" opacity="0.9088701715738303" transform="matrix(0.9348493400382268,-0.35504466117671984,0.35504466117671984,0.9348493400382268,291.22568948308833,8.016361094578997)" fill="none" stroke="#0013bb"></use><use xlink:href="#bbburst-shape-5" width="30.420908103548154" opacity="0.17362326179264798" transform="matrix(0.9691098492282608,0.7895100380164761,-0.7895100380164761,0.9691098492282608,780.535097848582,-362.9311499289344)" fill="#0013bb" filter="url(#bbburst-blur-3)"></use><use xlink:href="#bbburst-shape-9" width="12.113216226885102" opacity="0.789121596400241" transform="matrix(0.9982925787307967,-0.058411704743279697,0.058411704743279697,0.9982925787307967,322.9956483977111,83.05538898499958)" fill="none" stroke="#0013bb"></use><use xlink:href="#bbburst-shape-8" width="31.280366324540516" opacity="0.12255235620028426" transform="matrix(0.9833013658269634,0.771763191635121,-0.771763191635121,0.9833013658269634,395.5792072085464,-264.72553395070014)" fill="none" stroke="#0013bb" filter="url(#bbburst-blur-3)"></use><use xlink:href="#bbburst-shape-9" width="16.718254949933936" opacity="0.6755505689421082" transform="matrix(0.9369761495381985,-0.34939332448770594,0.34939332448770594,0.9369761495381985,106.46918197458345,22.609537301680632)" fill="none" stroke="#0013bb" filter="url(#bbburst-blur-1)"></use><use xlink:href="#bbburst-shape-10" width="33.662030110904325" opacity="0.3210471784003045" transform="matrix(0.9617412147323716,0.7984696837608191,-0.7984696837608191,0.9617412147323716,1008.7191764686647,4.385479927740448)" fill="none" stroke="#0013bb" filter="url(#bbburst-blur-3)"></use><use xlink:href="#bbburst-shape-10" width="22.200261344336695" opacity="0.5470616432140862" transform="matrix(0.9192135873351807,-0.3937592930438444,0.3937592930438444,0.9192135873351807,343.57508407129774,207.44771229164718)" fill="none" stroke="#0013bb" filter="url(#bbburst-blur-2)"></use><use xlink:href="#bbburst-shape-10" width="20.124626481652" opacity="0.5188918199536263" transform="matrix(0.9995357548413922,0.03046760236133321,-0.03046760236133321,0.9995357548413922,611.1308946062376,-56.60148559362932)" fill="none" stroke="#0013bb" filter="url(#bbburst-blur-2)"></use><use xlink:href="#bbburst-shape-9" width="19.20593138382596" opacity="0.6433424974824307" transform="matrix(0.9867151187928984,-0.16246007000342053,0.16246007000342053,0.9867151187928984,467.93992270041196,80.74205058811509)" fill="none" stroke="#0013bb" filter="url(#bbburst-blur-1)"></use></svg>