<svg xmlns="http://www.w3.org/2000/svg" version="1.1" xmlns:xlink="http://www.w3.org/1999/xlink" xmlns:svgjs="http://svgjs.dev/svgjs" viewBox="0 0 800 800"><defs><filter id="bbburst-blur-1" x="-100%" y="-100%" width="400%" height="400%"><feGaussianBlur in="SourceGraphic" stdDeviation="1"></feGaussianBlur></filter><filter id="bbburst-blur-2" x="-100%" y="-100%" width="400%" height="400%"><feGaussianBlur in="SourceGraphic" stdDeviation="2"></feGaussianBlur></filter><filter id="bbburst-blur-3" x="-100%" y="-100%" width="400%" height="400%"><feGaussianBlur in="SourceGraphic" stdDeviation="4"></feGaussianBlur></filter><filter id="bbburst-blur-4" x="-100%" y="-100%" width="400%" height="400%"><feGaussianBlur in="SourceGraphic" stdDeviation="12"></feGaussianBlur></filter><symbol id="bbburst-shape-1" viewBox="0 0 194 167"><path d="m97 0 96.129 166.5H.871L97 0Z"></path></symbol><symbol id="bbburst-shape-4" viewBox="0 0 149 143"><path d="M71.647 2.781c.898-2.764 4.808-2.764 5.706 0l15.445 47.534a3 3 0 0 0 2.853 2.073h49.98c2.906 0 4.115 3.719 1.764 5.427L106.96 87.193a2.999 2.999 0 0 0-1.09 3.354l15.445 47.534c.898 2.764-2.266 5.062-4.617 3.354l-40.435-29.378a3 3 0 0 0-3.526 0l-40.435 29.378c-2.351 1.708-5.515-.59-4.617-3.354L43.13 90.547a3 3 0 0 0-1.09-3.354L1.605 57.815c-2.35-1.708-1.142-5.427 1.764-5.427h49.98a3 3 0 0 0 2.853-2.073L71.647 2.781Z"></path></symbol><symbol id="bbburst-shape-6" viewBox="0 0 133 116"><path d="M59.7487 10.2513c-13.6683-13.66839-35.8291-13.66839-49.4974 0-13.66839 13.6683-13.66839 35.8291 0 49.4974l49.4974-49.4974ZM66.5 66.5 41.7513 91.2487 66.5 115.997l24.7487-24.7483L66.5 66.5Zm56.249-6.7513c13.668-13.6683 13.668-35.8291 0-49.4974-13.669-13.66839-35.8294-13.66839-49.4977 0l49.4977 49.4974Zm-112.4977 0 31.5 31.5 49.4974-49.4974-31.5-31.5-49.4974 49.4974Zm80.9974 31.5 31.5003-31.5-49.4977-49.4974-31.5 31.5 49.4974 49.4974Z"></path></symbol><symbol id="bbburst-shape-8" viewBox="0 0 87 168"><path d="m12 12 31.2546 18.0749c16.4102 9.4902 20.014 31.6325 7.4603 45.8369L36.3296 92.1884c-12.5684 14.2206-8.9394 36.3916 7.5068 45.8636L75 156" stroke-width="14" stroke-linecap="round" stroke-linejoin="round"></path></symbol><symbol id="bbburst-shape-10" viewBox="0 0 145 145"><circle cx="72.5" cy="72.5" r="61.5" fill="none" stroke-width="22"></circle></symbol></defs><use xlink:href="#bbburst-shape-4" width="27.696174918128143" opacity="0.5910178068514281" transform="matrix(0.9144415160886894,-0.4047180668730013,0.4047180668730013,0.9144415160886894,305.73618968946766,205.46234021194192)" fill="#ffffff" filter="url(#bbburst-blur-1)"></use><use xlink:href="#bbburst-shape-10" width="25.727778424547548" opacity="0.38894338833294695" transform="matrix(0.8244349841581338,-0.5659566740450878,0.5659566740450878,0.8244349841581338,386.58294064748975,237.59230998807266)" fill="none" stroke="#ffffff" filter="url(#bbburst-blur-2)"></use><use xlink:href="#bbburst-shape-6" width="30.58355266739303" opacity="0.5286800674749904" transform="matrix(0.9314061560817538,0.36398155504504853,-0.36398155504504853,0.9314061560817538,730.6323897016155,94.46827116192503)" fill="#ffffff" filter="url(#bbburst-blur-2)"></use><use xlink:href="#bbburst-shape-8" width="37.912964147650925" opacity="0.1162557867352082" transform="matrix(1.196468146664527,0.36188944999426537,-0.36188944999426537,1.196468146664527,210.2932362832923,161.42390819608562)" fill="none" stroke="#ffffff" filter="url(#bbburst-blur-3)"></use><use xlink:href="#bbburst-shape-1" width="30.018349308513127" opacity="0.3073604142778088" transform="matrix(1.2159594993087393,0.28972831418561806,-0.28972831418561806,1.2159594993087393,657.3935570411747,176.94270633991079)" fill="#ffffff" filter="url(#bbburst-blur-3)"></use><use xlink:href="#bbburst-shape-6" width="40.45011178836112" opacity="0.3823084859672795" transform="matrix(0.7404733971060414,-0.6720856702669971,0.6720856702669971,0.7404733971060414,90.29938178958389,394.1567207168929)" fill="#ffffff" filter="url(#bbburst-blur-2)"></use><use xlink:href="#bbburst-shape-6" width="20.935853647421414" opacity="0.8015165437202098" transform="matrix(0.9923731723979339,0.12326997487166343,-0.12326997487166343,0.9923731723979339,355.9666277280006,-31.351177471698293)" fill="#ffffff"></use><use xlink:href="#bbburst-shape-8" width="38.87764900309742" opacity="0.19547683038948171" transform="matrix(1.2491575554006802,-0.04588465740742259,0.04588465740742259,1.2491575554006802,314.8807162699126,-458.3052496653555)" fill="none" stroke="#ffffff" filter="url(#bbburst-blur-3)"></use><use xlink:href="#bbburst-shape-4" width="22.071601472694425" opacity="0.7860299949796016" transform="matrix(0.9214678962258549,0.3884545227244718,-0.3884545227244718,0.9214678962258549,636.4325439370255,-3.65494042616848)" fill="#ffffff"></use><use xlink:href="#bbburst-shape-4" width="21.430741468236487" opacity="0.7274183089898056" transform="matrix(0.8682958758524861,-0.4960466429455642,0.4960466429455642,0.8682958758524861,101.62307365812168,-24.605638321951858)" fill="#ffffff" filter="url(#bbburst-blur-1)"></use><use xlink:href="#bbburst-shape-10" width="14.978038274611421" opacity="0.8172024385695856" transform="matrix(0.8677984298476954,0.49691637641948827,-0.49691637641948827,0.8677984298476954,643.6759956534131,-15.056857330566572)" fill="none" stroke="#ffffff"></use><use xlink:href="#bbburst-shape-6" width="18.38637400745195" opacity="0.6442262758536046" transform="matrix(0.7754715522123113,0.631382508238412,-0.631382508238412,0.7754715522123113,802.4589421674907,115.17426574535483)" fill="#ffffff" filter="url(#bbburst-blur-1)"></use><use xlink:href="#bbburst-shape-1" width="30.859022753591614" opacity="0.0622738441619336" transform="matrix(1.694501973789092,0.4372219811776065,-0.4372219811776065,1.694501973789092,906.6850835011028,-507.9291913029313)" fill="#ffffff" filter="url(#bbburst-blur-4)"></use><use xlink:href="#bbburst-shape-6" width="50.46801916782254" opacity="0.17240413960580225" transform="matrix(1.204231679453326,-0.33515080516242446,0.33515080516242446,1.204231679453326,-13.728907519304158,-349.9190137387472)" fill="#ffffff" filter="url(#bbburst-blur-3)"></use><use xlink:href="#bbburst-shape-10" width="35.85996209071441" opacity="0.4000274094015749" transform="matrix(0.8077966351471113,-0.5894612762896344,0.5894612762896344,0.8077966351471113,336.3488912761733,-107.65820232927516)" fill="none" stroke="#ffffff" filter="url(#bbburst-blur-2)"></use><use xlink:href="#bbburst-shape-10" width="25.900954174816903" opacity="0.6654608685953047" transform="matrix(0.8945137641896862,0.4470404072063268,-0.4470404072063268,0.8945137641896862,502.0154660902096,-99.2780328333078)" fill="none" stroke="#ffffff" filter="url(#bbburst-blur-1)"></use><use xlink:href="#bbburst-shape-6" width="55.33435213996522" opacity="-0.0750946692310952" transform="matrix(1.7299732959981318,0.26399317251277643,-0.26399317251277643,1.7299732959981318,799.0216167600797,-642.1883240300525)" fill="#ffffff" filter="url(#bbburst-blur-4)"></use><use xlink:href="#bbburst-shape-6" width="27.084739905707917" opacity="0.6682157451168766" transform="matrix(0.7895436865764477,-0.6136943595856753,0.6136943595856753,0.7895436865764477,51.610558094149724,209.91127906604208)" fill="#ffffff" filter="url(#bbburst-blur-1)"></use><use xlink:href="#bbburst-shape-4" width="28.541702705909476" opacity="0.6476383389931799" transform="matrix(0.9956813104039816,-0.09283710525544281,0.09283710525544281,0.9956813104039816,201.4963122452744,-55.95992827057131)" fill="#ffffff" filter="url(#bbburst-blur-1)"></use><use xlink:href="#bbburst-shape-4" width="30.811582455817874" opacity="0.4805523722559203" transform="matrix(0.947074879236227,-0.3210127304635847,0.3210127304635847,0.947074879236227,151.18742407859844,-182.28206654227515)" fill="#ffffff" filter="url(#bbburst-blur-2)"></use><use xlink:href="#bbburst-shape-1" width="29.0846687834644" opacity="0.34269893807589524" transform="matrix(0.7379830699764377,0.6748192264808052,-0.6748192264808052,0.7379830699764377,452.9177775595058,307.03254481809734)" fill="#ffffff" filter="url(#bbburst-blur-2)"></use><use xlink:href="#bbburst-shape-6" width="31.98702914936943" opacity="0.49851590707777194" transform="matrix(0.7773731335818448,-0.6290397532629741,0.6290397532629741,0.7773731335818448,-60.31884237181322,-12.261498295444937)" fill="#ffffff" filter="url(#bbburst-blur-2)"></use><use xlink:href="#bbburst-shape-1" width="24.43453688253642" opacity="0.5443133958434465" transform="matrix(0.9921913679149982,0.12472485492059963,-0.12472485492059963,0.9921913679149982,627.044557561723,-77.24949407228536)" fill="#ffffff" filter="url(#bbburst-blur-2)"></use><use xlink:href="#bbburst-shape-4" width="23.831869981581807" opacity="0.07340852711814394" transform="matrix(1.601257253163602,0.706027768002758,-0.706027768002758,1.601257253163602,464.4814750958543,117.6237105232683)" fill="#ffffff" filter="url(#bbburst-blur-4)"></use><use xlink:href="#bbburst-shape-4" width="12.605558751264377" opacity="0.9025447098839051" transform="matrix(0.9892199095806722,-0.14643759930156858,0.14643759930156858,0.9892199095806722,291.3516060416095,6.382670517844133)" fill="#ffffff"></use><use xlink:href="#bbburst-shape-6" width="31.01448992922915" opacity="0.453628843029681" transform="matrix(0.9143548289362204,0.40491387578226434,-0.40491387578226434,0.9143548289362204,308.1469831453338,-27.007981717428265)" fill="#ffffff" filter="url(#bbburst-blur-2)"></use><use xlink:href="#bbburst-shape-10" width="14.780912948819484" opacity="0.8684890614278941" transform="matrix(0.7323966845436664,0.6808781803446525,-0.6808781803446525,0.7323966845436664,719.5492767907901,74.91001953505923)" fill="none" stroke="#ffffff"></use><use xlink:href="#bbburst-shape-8" width="38.20720703587835" opacity="-0.07453678965390642" transform="matrix(1.7479453522031918,-0.08477644549790789,0.08477644549790789,1.7479453522031918,667.2276013521121,51.586009940852364)" fill="none" stroke="#ffffff" filter="url(#bbburst-blur-4)"></use><use xlink:href="#bbburst-shape-6" width="36.63023275372308" opacity="0.5276533526618303" transform="matrix(0.9237515036888374,0.3829923751624981,-0.3829923751624981,0.9237515036888374,340.78654046785584,106.93021097221379)" fill="#ffffff" filter="url(#bbburst-blur-2)"></use><use xlink:href="#bbburst-shape-4" width="34.699036757628555" opacity="0.3816049852571941" transform="matrix(0.9999917890558508,-0.0040523845916694565,0.0040523845916694565,0.9999917890558508,655.7156303122521,-44.46153055197925)" fill="#ffffff" filter="url(#bbburst-blur-2)"></use><use xlink:href="#bbburst-shape-10" width="43.87671282190464" opacity="0.0728690719208741" transform="matrix(1.5718534279479974,-0.7692703042807061,0.7692703042807061,1.5718534279479974,277.2200482804427,-566.7192407011132)" fill="none" stroke="#ffffff" filter="url(#bbburst-blur-4)"></use><use xlink:href="#bbburst-shape-10" width="36.74245744432819" opacity="0.3834332819741981" transform="matrix(0.9912790916689592,0.13177921846772056,-0.13177921846772056,0.9912790916689592,704.9547391462874,63.0018607261282)" fill="none" stroke="#ffffff" filter="url(#bbburst-blur-2)"></use><use xlink:href="#bbburst-shape-4" width="19.351418766116613" opacity="0.7209543902749408" transform="matrix(0.9830534841197138,-0.18331897708663858,0.18331897708663858,0.9830534841197138,288.6622311650571,130.86276078735273)" fill="#ffffff" filter="url(#bbburst-blur-1)"></use><use xlink:href="#bbburst-shape-10" width="22.185820552352965" opacity="0.7565473063956909" transform="matrix(0.7216453504462054,0.6922629472818644,-0.6922629472818644,0.7216453504462054,706.9922471990051,206.38071515017026)" fill="none" stroke="#ffffff" filter="url(#bbburst-blur-1)"></use><use xlink:href="#bbburst-shape-10" width="36.592000772489726" opacity="0.2836070373815299" transform="matrix(1.2285496367903592,0.23057708026227686,-0.23057708026227686,1.2285496367903592,621.4676072161528,-380.08459996987426)" fill="none" stroke="#ffffff" filter="url(#bbburst-blur-3)"></use><use xlink:href="#bbburst-shape-8" width="29.022953077312607" opacity="0.5796200781351688" transform="matrix(0.9878194786069121,0.15560423414794464,-0.15560423414794464,0.9878194786069121,316.9226261399315,-133.8730605652035)" fill="none" stroke="#ffffff" filter="url(#bbburst-blur-1)"></use><use xlink:href="#bbburst-shape-4" width="8.870841024525694" opacity="0.9125259969697557" transform="matrix(0.7815891165717554,-0.6237935979605617,0.6237935979605617,0.7815891165717554,185.46075706996675,98.61369954849675)" fill="#ffffff"></use><use xlink:href="#bbburst-shape-6" width="16.931038372247535" opacity="0.8701674299144252" transform="matrix(0.9506634759423389,-0.3102240408305422,0.3102240408305422,0.9506634759423389,300.3183746783841,70.94148371236912)" fill="#ffffff"></use><use xlink:href="#bbburst-shape-10" width="28.73907622583262" opacity="0.5769669021860501" transform="matrix(0.8830319917204427,0.4693127971813981,-0.4693127971813981,0.8830319917204427,384.6848672591214,42.30323397231939)" fill="none" stroke="#ffffff" filter="url(#bbburst-blur-1)"></use><use xlink:href="#bbburst-shape-10" width="29.474426690569743" opacity="0.15944072995708136" transform="matrix(1.2497472290110603,-0.025136896769020204,0.025136896769020204,1.2497472290110603,734.3232041926186,7.492953955851249)" fill="none" stroke="#ffffff" filter="url(#bbburst-blur-3)"></use><use xlink:href="#bbburst-shape-8" width="35.64430538326293" opacity="0.4538291563028709" transform="matrix(0.9187794932268467,-0.3947711271430812,0.3947711271430812,0.9187794932268467,110.13128851605717,256.42531494430517)" fill="none" stroke="#ffffff" filter="url(#bbburst-blur-2)"></use><use xlink:href="#bbburst-shape-10" width="40.77602378693415" opacity="0.30094782567920375" transform="matrix(0.8859419457331246,-0.8818202020767075,0.8818202020767075,0.8859419457331246,-242.0764296078103,-95.64805436479611)" fill="none" stroke="#ffffff" filter="url(#bbburst-blur-3)"></use><use xlink:href="#bbburst-shape-4" width="31.55157957955005" opacity="0.4604917210477272" transform="matrix(0.9286566295149136,-0.37094051336838435,0.37094051336838435,0.9286566295149136,388.5661962085922,224.05858847175153)" fill="#ffffff" filter="url(#bbburst-blur-2)"></use><use xlink:href="#bbburst-shape-8" width="38.50432308942997" opacity="0.39545455027578746" transform="matrix(0.9531875348690334,-0.30237976680045126,0.30237976680045126,0.9531875348690334,219.80075343607186,-244.40747147341114)" fill="none" stroke="#ffffff" filter="url(#bbburst-blur-2)"></use><use xlink:href="#bbburst-shape-1" width="14.523885573881962" opacity="0.9349848166058441" transform="matrix(0.9770253515008915,-0.21312311588506608,0.21312311588506608,0.9770253515008915,328.4567029763067,-9.821930323973504)" fill="#ffffff"></use><use xlink:href="#bbburst-shape-8" width="30.32624922317637" opacity="0.28558274744872514" transform="matrix(1.221287902761289,0.2663754090920038,-0.2663754090920038,1.221287902761289,356.66930270168336,-385.9793821958641)" fill="none" stroke="#ffffff" filter="url(#bbburst-blur-3)"></use><use xlink:href="#bbburst-shape-6" width="31.39937881763924" opacity="0.5470269006417164" transform="matrix(0.9909649460429474,0.13412112329569276,-0.13412112329569276,0.9909649460429474,470.4404581453117,-199.74578451598268)" fill="#ffffff" filter="url(#bbburst-blur-2)"></use><use xlink:href="#bbburst-shape-10" width="12.853147327835504" opacity="0.8488801030814391" transform="matrix(0.9933195600062611,-0.11539606452980893,0.11539606452980893,0.9933195600062611,414.2010805546166,16.44807725052175)" fill="none" stroke="#ffffff"></use><use xlink:href="#bbburst-shape-6" width="27.495626752687297" opacity="0.5367458866847605" transform="matrix(0.8320218825298813,0.5547428115725632,-0.5547428115725632,0.8320218825298813,818.7131017247804,50.2164101950666)" fill="#ffffff" filter="url(#bbburst-blur-2)"></use><use xlink:href="#bbburst-shape-10" width="41.127426355731124" opacity="0.19946963236192017" transform="matrix(1.2427513093085214,-0.13442166198926375,0.13442166198926375,1.2427513093085214,-28.381940007142454,-5.282343460438369)" fill="none" stroke="#ffffff" filter="url(#bbburst-blur-3)"></use><use xlink:href="#bbburst-shape-1" width="30.71015900142196" opacity="0.23952374145122868" transform="matrix(1.166748183511834,-0.4485517542846487,0.4485517542846487,1.166748183511834,504.8125921051843,100.94368165119744)" fill="#ffffff" filter="url(#bbburst-blur-3)"></use><use xlink:href="#bbburst-shape-1" width="17.001591357480606" opacity="0.8297139268171326" transform="matrix(0.9181368222975353,-0.39626351780271685,0.39626351780271685,0.9181368222975353,235.50860206574325,112.74127990792869)" fill="#ffffff"></use><use xlink:href="#bbburst-shape-6" width="31.51544227071523" opacity="0.4657865700401733" transform="matrix(0.9063472174488064,0.42253369264806084,-0.42253369264806084,0.9063472174488064,659.6962925642124,-185.46652508225785)" fill="#ffffff" filter="url(#bbburst-blur-2)"></use><use xlink:href="#bbburst-shape-4" width="32.23237953882654" opacity="0.17395580338505778" transform="matrix(1.221584706231443,0.2650109535499224,-0.2650109535499224,1.221584706231443,574.870526821596,-453.88516884758735)" fill="#ffffff" filter="url(#bbburst-blur-3)"></use><use xlink:href="#bbburst-shape-10" width="33.92363846415691" opacity="0.5276689004878662" transform="matrix(0.9967452595524215,0.08061567812637759,-0.08061567812637759,0.9967452595524215,259.8076189942904,144.80291052689188)" fill="none" stroke="#ffffff" filter="url(#bbburst-blur-2)"></use><use xlink:href="#bbburst-shape-10" width="17.06305382256381" opacity="0.7993896171959562" transform="matrix(0.714610115928465,0.6995229676091457,-0.6995229676091457,0.714610115928465,629.8460895584064,187.0882452086014)" fill="none" stroke="#ffffff"></use><use xlink:href="#bbburst-shape-10" width="22.824872623641202" opacity="0.5798867131880947" transform="matrix(0.8014639555580201,0.5980430820110638,-0.5980430820110638,0.8014639555580201,569.0339605333298,251.51609733575094)" fill="none" stroke="#ffffff" filter="url(#bbburst-blur-1)"></use><use xlink:href="#bbburst-shape-1" width="30.02909932151698" opacity="0.5647187614020529" transform="matrix(0.9887202152470106,0.14977428337970772,-0.14977428337970772,0.9887202152470106,410.0222231648349,-190.41620873525915)" fill="#ffffff" filter="url(#bbburst-blur-1)"></use><use xlink:href="#bbburst-shape-1" width="24.513402836516057" opacity="0.667604282196031" transform="matrix(0.9286985544409331,0.3708355362951631,-0.3708355362951631,0.9286985544409331,554.0681981750363,172.59882139689125)" fill="#ffffff" filter="url(#bbburst-blur-1)"></use><use xlink:href="#bbburst-shape-6" width="19.775716860801367" opacity="0.7140027669707603" transform="matrix(0.9060032734055715,0.423270680036297,-0.423270680036297,0.9060032734055715,431.65120917783446,33.17931343722705)" fill="#ffffff" filter="url(#bbburst-blur-1)"></use><use xlink:href="#bbburst-shape-10" width="43.415938314208766" opacity="0.1829937276352639" transform="matrix(1.1613245834660404,-0.4624123828763973,0.4624123828763973,1.1613245834660404,446.54175320555896,208.69090953363002)" fill="none" stroke="#ffffff" filter="url(#bbburst-blur-3)"></use><use xlink:href="#bbburst-shape-6" width="26.93695843682478" opacity="0.186194456121467" transform="matrix(1.1844562025428633,-0.3994540076876676,0.3994540076876676,1.1844562025428633,-141.87304335616335,-75.75318923156306)" fill="#ffffff" filter="url(#bbburst-blur-3)"></use><use xlink:href="#bbburst-shape-10" width="27.81258299352758" opacity="0.09084844269494508" transform="matrix(1.5682339457836918,0.7766223607981634,-0.7766223607981634,1.5682339457836918,326.1978580537932,-48.70520370501197)" fill="none" stroke="#ffffff" filter="url(#bbburst-blur-4)"></use><use xlink:href="#bbburst-shape-6" width="35.565486868014055" opacity="0.2541346051694561" transform="matrix(1.2465336256789536,0.09302644812999256,-0.09302644812999256,1.2465336256789536,715.4027438662475,-250.06140933344204)" fill="#ffffff" filter="url(#bbburst-blur-3)"></use><use xlink:href="#bbburst-shape-4" width="32.629532905379" opacity="0.28363406444727035" transform="matrix(1.12325453325146,0.5484516875077008,-0.5484516875077008,1.12325453325146,472.4594586442444,237.39541013306217)" fill="#ffffff" filter="url(#bbburst-blur-3)"></use><use xlink:href="#bbburst-shape-10" width="16.93575661167824" opacity="0.6659197883169004" transform="matrix(0.833039096386211,0.5532141211972496,-0.5532141211972496,0.833039096386211,753.6083655438908,5.752246743438377)" fill="none" stroke="#ffffff" filter="url(#bbburst-blur-1)"></use><use xlink:href="#bbburst-shape-4" width="27.687627033198172" opacity="0.1597515346414492" transform="matrix(1.2459429884854485,-0.10062837295688531,0.10062837295688531,1.2459429884854485,107.01114118370258,198.87204732938608)" fill="#ffffff" filter="url(#bbburst-blur-3)"></use><use xlink:href="#bbburst-shape-4" width="40.742716024040526" opacity="0.3595609899749367" transform="matrix(0.9331582668597157,0.3594657827824111,-0.3594657827824111,0.9331582668597157,568.3709021247076,-265.4308975446862)" fill="#ffffff" filter="url(#bbburst-blur-2)"></use><use xlink:href="#bbburst-shape-4" width="25.14106828796993" opacity="0.41498341906232405" transform="matrix(0.9745921873929142,0.22398675914592533,-0.22398675914592533,0.9745921873929142,707.1144419941593,-121.1116290192769)" fill="#ffffff" filter="url(#bbburst-blur-2)"></use><use xlink:href="#bbburst-shape-10" width="30.446064348957478" opacity="0.3144646554114179" transform="matrix(0.9410673799331022,0.8227345783579576,-0.8227345783579576,0.9410673799331022,409.3054585756672,-32.071385441232394)" fill="none" stroke="#ffffff" filter="url(#bbburst-blur-3)"></use><use xlink:href="#bbburst-shape-10" width="14.551421937582242" opacity="0.7675719679537224" transform="matrix(0.7187720248511412,-0.69524583874439,0.69524583874439,0.7187720248511412,94.30823568914491,15.375852173863734)" fill="none" stroke="#ffffff" filter="url(#bbburst-blur-1)"></use><use xlink:href="#bbburst-shape-6" width="46.58566192589286" opacity="0.15798869338249122" transform="matrix(0.9958460457106028,0.755506884973629,-0.755506884973629,0.9958460457106028,321.74484166096045,-142.16314095664035)" fill="#ffffff" filter="url(#bbburst-blur-3)"></use><use xlink:href="#bbburst-shape-6" width="20.91359470234812" opacity="0.7101344454176745" transform="matrix(0.9999989823244059,-0.0014266569849302007,0.0014266569849302007,0.9999989823244059,441.1724684428579,-119.5236916210344)" fill="#ffffff" filter="url(#bbburst-blur-1)"></use><use xlink:href="#bbburst-shape-6" width="22.705658464458672" opacity="0.3059505462129597" transform="matrix(1.154360620453712,0.47953264533889733,-0.47953264533889733,1.154360620453712,654.0581148723356,235.9085048626696)" fill="#ffffff" filter="url(#bbburst-blur-3)"></use><use xlink:href="#bbburst-shape-1" width="13.238942580897877" opacity="0.8205790166011089" transform="matrix(0.7260368878786292,-0.6876557550399145,0.6876557550399145,0.7260368878786292,77.73742790745735,45.44301496742793)" fill="#ffffff"></use><use xlink:href="#bbburst-shape-10" width="38.63529318541505" opacity="0.18655348805237293" transform="matrix(1.153077733862199,0.48260930334092816,-0.48260930334092816,1.153077733862199,509.1922875036702,290.28061141354056)" fill="none" stroke="#ffffff" filter="url(#bbburst-blur-3)"></use><use xlink:href="#bbburst-shape-6" width="52.6915627771798" opacity="0.05550640334780166" transform="matrix(1.6450300989969335,0.596972338885261,-0.596972338885261,1.6450300989969335,244.67825924537073,-513.7465420438468)" fill="#ffffff" filter="url(#bbburst-blur-4)"></use><use xlink:href="#bbburst-shape-4" width="25.460859869353463" opacity="0.7203994428300713" transform="matrix(0.9982986964512119,-0.05830705500890061,0.05830705500890061,0.9982986964512119,457.9594835424644,-82.2001359272449)" fill="#ffffff" filter="url(#bbburst-blur-1)"></use><use xlink:href="#bbburst-shape-4" width="13.19785805939669" opacity="0.973026532961529" transform="matrix(0.9554107413787273,-0.29528006241219656,0.29528006241219656,0.9554107413787273,266.00376864471656,12.345973826725242)" fill="#ffffff"></use><use xlink:href="#bbburst-shape-1" width="17.593582619276688" opacity="0.8038395720868967" transform="matrix(0.8759753071596438,0.48235594870030135,-0.48235594870030135,0.8759753071596438,602.8514738404017,-41.10801986610903)" fill="#ffffff"></use><use xlink:href="#bbburst-shape-6" width="26.184363586062368" opacity="0.604840119129735" transform="matrix(0.9954377690669363,-0.09541303849600882,0.09541303849600882,0.9954377690669363,440.1197213329275,-149.50933656466756)" fill="#ffffff" filter="url(#bbburst-blur-1)"></use><use xlink:href="#bbburst-shape-6" width="32.84105050980712" opacity="0.0924375179339939" transform="matrix(1.737944345549577,-0.2050596297964372,0.2050596297964372,1.737944345549577,100.27265889625626,-653.7622501272192)" fill="#ffffff" filter="url(#bbburst-blur-4)"></use><use xlink:href="#bbburst-shape-4" width="14.943783481186165" opacity="0.8931896424652384" transform="matrix(0.937311374707013,-0.3484930226630792,0.3484930226630792,0.937311374707013,218.86043302241958,-5.520813546625391)" fill="#ffffff"></use><use xlink:href="#bbburst-shape-6" width="13.182607954993376" opacity="0.8887514222759965" transform="matrix(0.8563271037703581,-0.5164338208795686,0.5164338208795686,0.8563271037703581,191.14899821976636,10.924738326009106)" fill="#ffffff"></use><use xlink:href="#bbburst-shape-4" width="16.077096186432446" opacity="0.8103641199199477" transform="matrix(0.9373091884393905,0.3484989028204984,-0.3484989028204984,0.9373091884393905,447.6571733745881,36.151012396570366)" fill="#ffffff"></use><use xlink:href="#bbburst-shape-6" width="35.22853178044831" opacity="0.38243033988072495" transform="matrix(0.8694432024375622,-0.49403291159103585,0.49403291159103585,0.8694432024375622,-1.7530740891793073,-142.97896891860674)" fill="#ffffff" filter="url(#bbburst-blur-2)"></use><use xlink:href="#bbburst-shape-4" width="23.422708229520463" opacity="0.575368624197413" transform="matrix(0.9457128096145255,-0.32500351033642744,0.32500351033642744,0.9457128096145255,402.0092448100946,-101.11358917626973)" fill="#ffffff" filter="url(#bbburst-blur-1)"></use><use xlink:href="#bbburst-shape-6" width="22.74210221301912" opacity="0.6860459185196639" transform="matrix(0.8923506737698501,-0.45134274672635927,0.45134274672635927,0.8923506737698501,297.88464603129245,158.26243279095172)" fill="#ffffff" filter="url(#bbburst-blur-1)"></use><use xlink:href="#bbburst-shape-10" width="40.54162437121952" opacity="-0.0764357793799455" transform="matrix(1.3838358750499238,-1.0712134572179401,1.0712134572179401,1.3838358750499238,-390.2535725552917,-482.9221565091624)" fill="none" stroke="#ffffff" filter="url(#bbburst-blur-4)"></use><use xlink:href="#bbburst-shape-10" width="18.416709343568293" opacity="0.7671536680699204" transform="matrix(0.7909602393524289,0.6118675508339598,-0.6118675508339598,0.7909602393524289,551.373454241689,137.7103033483031)" fill="none" stroke="#ffffff" filter="url(#bbburst-blur-1)"></use><use xlink:href="#bbburst-shape-6" width="32.06774909096656" opacity="0.045859071396697204" transform="matrix(1.2804988383681004,1.1928213298469916,-1.1928213298469916,1.2804988383681004,1214.2905509795305,106.17931106453773)" fill="#ffffff" filter="url(#bbburst-blur-4)"></use><use xlink:href="#bbburst-shape-10" width="31.396629469856556" opacity="0.46046076450435647" transform="matrix(0.9999930272756365,-0.0037343540415971928,0.0037343540415971928,0.9999930272756365,453.25921628171363,232.40794086194848)" fill="none" stroke="#ffffff" filter="url(#bbburst-blur-2)"></use><use xlink:href="#bbburst-shape-10" width="15.975716276271148" opacity="0.796313164647509" transform="matrix(0.968736381242614,-0.24809236920341773,0.24809236920341773,0.968736381242614,362.13923079641637,74.69182112960613)" fill="none" stroke="#ffffff"></use><use xlink:href="#bbburst-shape-1" width="20.860431987616888" opacity="0.7703155007276922" transform="matrix(0.99986787299777,-0.016255354407552096,0.016255354407552096,0.99986787299777,484.63146565272774,19.43372736854502)" fill="#ffffff" filter="url(#bbburst-blur-1)"></use><use xlink:href="#bbburst-shape-6" width="23.716119519990436" opacity="0.17341955227966832" transform="matrix(1.0697778145150356,-0.6465875250663546,0.6465875250663546,1.0697778145150356,189.04810204807973,346.7861031812594)" fill="#ffffff" filter="url(#bbburst-blur-3)"></use><use xlink:href="#bbburst-shape-4" width="23.49798295301917" opacity="0.5428950172553442" transform="matrix(0.9937099882455954,-0.11198419201359894,0.11198419201359894,0.9937099882455954,345.39477737576595,209.5417301686992)" fill="#ffffff" filter="url(#bbburst-blur-2)"></use><use xlink:href="#bbburst-shape-4" width="16.346397024404652" opacity="0.9123234771122968" transform="matrix(0.988387086132756,-0.15195712542029718,0.15195712542029718,0.988387086132756,318.328979218482,43.21806440913207)" fill="#ffffff"></use><use xlink:href="#bbburst-shape-4" width="48.42074745167863" opacity="0.19286377333425764" transform="matrix(1.2472709954831893,0.08255339984745551,-0.08255339984745551,1.2472709954831893,662.4818039257259,-354.81796256702046)" fill="#ffffff" filter="url(#bbburst-blur-3)"></use><use xlink:href="#bbburst-shape-1" width="21.310521126181087" opacity="0.6981513295510241" transform="matrix(0.9185091685055915,-0.39539968054004165,0.39539968054004165,0.9185091685055915,350.8681970205698,102.68203205362977)" fill="#ffffff" filter="url(#bbburst-blur-1)"></use><use xlink:href="#bbburst-shape-6" width="33.02388746119691" opacity="0.09501303069402423" transform="matrix(1.2577773585597432,-1.216756391515769,1.216756391515769,1.2577773585597432,89.6229917565716,273.3538746604752)" fill="#ffffff" filter="url(#bbburst-blur-4)"></use><use xlink:href="#bbburst-shape-6" width="17.188657753797838" opacity="0.8648719128508005" transform="matrix(0.8873871642583204,-0.4610249675555291,0.4610249675555291,0.8873871642583204,160.34035536735266,86.81752733183748)" fill="#ffffff"></use><use xlink:href="#bbburst-shape-4" width="36.04106951340832" opacity="0.17038029981910485" transform="matrix(1.1789022074113162,-0.41555936442429753,0.41555936442429753,1.1789022074113162,574.7856525018856,-154.34638157033305)" fill="#ffffff" filter="url(#bbburst-blur-3)"></use><use xlink:href="#bbburst-shape-10" width="22.951796358272556" opacity="0.5746367607103131" transform="matrix(0.962538090476278,0.2711464998525344,-0.2711464998525344,0.962538090476278,647.8878783761044,130.17909483065972)" fill="none" stroke="#ffffff" filter="url(#bbburst-blur-1)"></use><use xlink:href="#bbburst-shape-1" width="34.917246938056486" opacity="0.40314946180637434" transform="matrix(0.9496479549947786,0.31331894544415095,-0.31331894544415095,0.9496479549947786,243.66831621371395,58.03658788146339)" fill="#ffffff" filter="url(#bbburst-blur-2)"></use><use xlink:href="#bbburst-shape-10" width="37.80055635020117" opacity="0.3351064844297662" transform="matrix(0.7699685734104973,-0.6380818097706623,0.6380818097706623,0.7699685734104973,-132.88214301558682,246.5574884267133)" fill="none" stroke="#ffffff" filter="url(#bbburst-blur-2)"></use><use xlink:href="#bbburst-shape-8" width="21.84485708324122" opacity="0.6674456582071144" transform="matrix(0.9175323590885069,-0.3976611246092319,0.3976611246092319,0.9175323590885069,94.90551922957485,99.75398871930969)" fill="none" stroke="#ffffff" filter="url(#bbburst-blur-1)"></use><use xlink:href="#bbburst-shape-4" width="41.119496610238976" opacity="-0.07954766237973843" transform="matrix(1.7481822423451392,0.0797423823892955,-0.0797423823892955,1.7481822423451392,53.88089535427655,44.096024980179095)" fill="#ffffff" filter="url(#bbburst-blur-4)"></use><use xlink:href="#bbburst-shape-4" width="46.55347077421338" opacity="0.22007204962738824" transform="matrix(1.1109020168476973,0.5730590798196276,-0.5730590798196276,1.1109020168476973,954.161756779592,-47.49713002069501)" fill="#ffffff" filter="url(#bbburst-blur-3)"></use><use xlink:href="#bbburst-shape-10" width="14.168036403085312" opacity="0.9531682993979051" transform="matrix(0.9769903272898322,0.2132836148936588,-0.2132836148936588,0.9769903272898322,489.65036576373893,25.50823968613537)" fill="none" stroke="#ffffff"></use><use xlink:href="#bbburst-shape-4" width="18.915420829693115" opacity="0.6822681712525331" transform="matrix(0.8729245783823946,0.48785518389776145,-0.48785518389776145,0.8729245783823946,591.4356416754754,-96.67550645106581)" fill="#ffffff" filter="url(#bbburst-blur-1)"></use><use xlink:href="#bbburst-shape-10" width="15.228928799319071" opacity="0.6906374390523365" transform="matrix(0.8504760409326372,0.526013786701021,-0.526013786701021,0.8504760409326372,742.6313995141949,43.88309197024182)" fill="none" stroke="#ffffff" filter="url(#bbburst-blur-1)"></use></svg>